<svg width="1545" height="278" viewBox="0 0 1545 278" fill="none" xmlns="http://www.w3.org/2000/svg">
<path d="M91.602 243H75.686L75.686 17.408L16.866 17.408L16.866 243H0.950001L0.950001 3.56799L91.602 3.56799L91.602 243ZM136.62 3.56799H175.718C189.789 3.56799 200.976 7.95065 209.28 16.716C217.584 25.4813 221.736 36.5533 221.736 49.932V100.794C221.736 114.173 217.584 125.245 209.28 134.01C200.976 142.775 189.789 147.158 175.718 147.158H152.536L152.536 243L136.62 243L136.62 3.56799ZM174.68 133.318C184.368 133.318 191.98 130.319 197.516 124.322C203.052 118.094 205.82 109.905 205.82 99.756V50.97C205.82 40.8207 203.052 32.7473 197.516 26.75C191.98 20.522 184.368 17.408 174.68 17.408H152.536L152.536 133.318H174.68ZM256.747 3.56799L334.943 3.56799V17.408L272.663 17.408L272.663 111.174H321.103V125.014H272.663V229.16H336.673V243H256.747L256.747 3.56799ZM469.715 3.56799L469.715 243H453.799L453.799 51.316L385.983 243H372.143L372.143 3.56799L388.059 3.56799L388.059 194.906L455.875 3.56799L469.715 3.56799ZM648.819 3.22199V243H632.903V53.046L583.425 197.328H579.965L530.487 53.046V243H514.571V3.22199H528.411L581.695 161.344L634.979 3.22199L648.819 3.22199ZM782.059 3.56799L719.433 243H702.479L721.855 168.956L672.723 3.56799H690.023L729.467 145.082L765.105 3.56799H782.059ZM805.846 3.56799L821.762 3.56799V229.16L873.662 229.16V3.56799H889.578V229.16H941.478V3.56799H957.394V229.16H972.618V277.254H956.702V243L805.846 243V3.56799ZM998.619 3.56799H1076.82V17.408H1014.54V111.174H1062.98V125.014H1014.54V229.16H1078.55V243H998.619V3.56799ZM1181.91 57.198C1181.91 44.05 1179.26 33.67 1173.95 26.058C1168.88 18.446 1161.5 14.64 1151.81 14.64C1142.12 14.64 1134.51 18.5613 1128.97 26.404C1123.44 34.016 1120.67 44.2807 1120.67 57.198V189.37C1120.67 202.287 1123.44 212.667 1128.97 220.51C1134.51 228.122 1142.12 231.928 1151.81 231.928C1161.5 231.928 1169.11 228.122 1174.65 220.51C1180.18 212.667 1182.95 202.287 1182.95 189.37V172.762H1198.87V190.408C1198.87 207.016 1194.6 220.395 1186.06 230.544C1177.53 240.693 1166.11 245.768 1151.81 245.768C1137.51 245.768 1126.09 240.693 1117.56 230.544C1109.02 220.395 1104.75 207.016 1104.75 190.408V56.16C1104.75 39.552 1109.02 26.1733 1117.56 16.024C1126.09 5.87465 1137.51 0.799984 1151.81 0.799984C1166.11 0.799984 1177.3 5.87465 1185.37 16.024C1193.68 26.1733 1197.83 39.552 1197.83 56.16V70.346H1181.91V57.198ZM1209.67 3.56799L1305.16 3.56799V17.408H1265.37V243H1249.46V17.408H1209.67V3.56799ZM1392.58 116.71C1401.35 119.709 1408.04 124.899 1412.65 132.28C1417.5 139.661 1419.92 148.311 1419.92 158.23V196.636C1419.92 210.015 1415.77 221.087 1407.46 229.852C1399.16 238.617 1387.97 243 1373.9 243H1329.27V3.56799L1368.71 3.56799C1382.78 3.56799 1393.97 7.95065 1402.27 16.716C1410.58 25.4813 1414.73 36.5533 1414.73 49.932V79.342C1414.73 88.1073 1412.77 95.7193 1408.85 102.178C1405.16 108.637 1399.73 113.481 1392.58 116.71ZM1345.18 17.408V111.866H1367.67C1377.36 111.866 1384.97 108.867 1390.51 102.87C1396.04 96.642 1398.81 88.4533 1398.81 78.304V50.97C1398.81 40.8207 1396.04 32.7473 1390.51 26.75C1384.97 20.522 1377.36 17.408 1367.67 17.408H1345.18ZM1404 159.268C1404 149.119 1401.23 141.045 1395.7 135.048C1390.16 128.82 1382.55 125.706 1372.86 125.706H1345.18V229.16H1372.86C1382.55 229.16 1390.16 226.161 1395.7 220.164C1401.23 213.936 1404 205.747 1404 195.598V159.268ZM1481.12 3.56799H1495.65L1544.09 243H1527.14L1515.37 179.682L1461.4 179.682L1449.63 243H1432.68L1481.12 3.56799ZM1512.95 165.842L1488.39 33.324L1463.82 165.842L1512.95 165.842Z" fill="#FA4500"/>
</svg>
