<?xml version="1.0" standalone="no"?>
<!DOCTYPE svg PUBLIC "-//W3C//DTD SVG 20010904//EN"
 "http://www.w3.org/TR/2001/REC-SVG-20010904/DTD/svg10.dtd">
<svg version="1.0" xmlns="http://www.w3.org/2000/svg"
 width="1024.000000pt" height="1024.000000pt" viewBox="0 0 1024.000000 1024.000000"
 preserveAspectRatio="xMidYMid meet">
<metadata>
Created by potrace 1.11, written by Peter Selinger 2001-2013
</metadata>
<g transform="translate(0.000000,1024.000000) scale(0.100000,-0.100000)"
fill="#000000"  stroke="none">
<path d="M9432 10178 c-75 -133 -309 -473 -469 -680 l-83 -108 15 -472 c8
-260 21 -711 30 -1003 8 -291 26 -915 40 -1385 14 -470 36 -1235 50 -1700 13
-465 27 -926 30 -1025 5 -162 16 -517 70 -2395 42 -1418 42 -1426 59 -1409 2
2 11 247 20 544 9 297 18 621 21 720 3 99 17 574 30 1055 14 481 34 1190 45
1575 11 385 29 1024 40 1420 11 396 24 869 30 1050 6 182 17 580 25 885 8 305
22 780 30 1055 8 275 22 750 30 1055 8 305 17 626 21 713 4 86 4 157 1 157 -3
0 -18 -24 -35 -52z"/>
<path d="M7300 7758 c-69 -60 -196 -169 -283 -241 l-158 -132 6 -90 c3 -49 12
-290 20 -535 14 -414 57 -1623 70 -1965 3 -82 17 -463 30 -845 14 -382 32
-886 40 -1120 30 -823 45 -1262 70 -1960 13 -388 26 -740 28 -783 3 -70 10
-98 21 -86 4 4 9 148 66 1719 17 454 41 1131 55 1505 13 374 27 745 30 825 3
80 17 453 30 830 25 680 74 2036 96 2640 6 173 10 322 8 331 -3 12 -39 -15
-129 -93z"/>
<path d="M5185 6194 c-110 -69 -233 -144 -272 -167 l-73 -42 0 -45 c0 -44 48
-1145 85 -1955 3 -66 17 -374 30 -685 14 -311 36 -815 50 -1120 14 -305 31
-708 40 -895 47 -1070 57 -1280 61 -1285 15 -15 22 50 33 323 6 166 23 552 36
857 13 305 38 870 55 1255 17 385 42 957 55 1270 14 314 36 827 50 1140 14
314 31 732 40 930 8 198 17 402 20 453 4 50 3 92 -2 92 -4 -1 -98 -57 -208
-126z"/>
<path d="M3275 5178 c-49 -22 -173 -73 -275 -115 -102 -41 -186 -76 -188 -78
-1 -1 5 -134 13 -296 71 -1367 173 -3305 180 -3429 3 -52 16 -306 30 -565 36
-687 36 -695 46 -695 14 0 17 28 38 460 12 228 35 665 51 970 16 305 43 809
60 1120 17 311 41 774 55 1030 70 1296 86 1597 83 1616 -3 21 -6 20 -93 -18z"/>
<path d="M1145 4490 c-99 -21 -219 -43 -266 -50 -48 -7 -92 -16 -98 -19 -7 -5
31 -672 128 -2211 77 -1213 140 -2206 140 -2207 1 -2 5 -3 10 -3 10 0 10 9 51
670 31 510 70 1143 120 1950 28 445 56 900 95 1540 8 135 18 273 21 308 4 48
3 62 -8 60 -7 0 -94 -18 -193 -38z"/>
</g>
</svg>
