<svg width="2992" height="3757" viewBox="0 0 2992 3757" fill="none" xmlns="http://www.w3.org/2000/svg">
    <g>
      <path id="Vector" d="M1070.3 348.3L1461.7 70.2L1543.4 222.6" stroke="url(#illustration_linear)" stroke-miterlimit="10"/>
    </g>
    <g>
      <path d="M2121.6 2678.1L1594.3 2749.5L1494.1 2728.9L438.3 2897.5L446 2861.9L256.2 2889.2" stroke="url(#illustration_linear)" stroke-miterlimit="10"/>
    </g>
    <g>
      <path d="M468.8 2757.2L1491.8 2542.2L1588 2569.8" stroke="url(#illustration_linear)" stroke-miterlimit="10"/>
    </g>
    <g>
      <path d="M90.8997 3536.2L296.6 3548.1L294.2 3561.6L1505.7 3628.9H1504.8L1623 3589.5L2265.8 3628.9L2902.8 3480.6" stroke="url(#illustration_linear)" stroke-miterlimit="10"/>
    </g>
    <g>
      <path d="M1462.9 167L952.6 529.7" stroke="url(#illustration_linear)" stroke-miterlimit="10"/>
    </g>
    <g>
      <path d="M939.8 588.8L1463.5 216.6L1508.6 303.2L1729.7 148" stroke="url(#illustration_linear)" stroke-miterlimit="10"/>
    </g>
    <g>
      <path d="M1464.2 272.6L928.1 642.7" stroke="url(#illustration_linear)" stroke-miterlimit="10"/>
    </g>
    <g>
      <path d="M1745.7 251.4L1512.2 405.8L1464.8 322.1L916.2 697.1L919 684.3L801.2 758.5" stroke="url(#illustration_linear)" stroke-miterlimit="10"/>
    </g>
    <g>
      <path d="M1737.9 201.1L1510.6 356.5" stroke="url(#illustration_linear)" stroke-miterlimit="10"/>
    </g>
    <g>
      <path d="M1465.5 379.9L903.3 756.8L906.3 743.1L785.1 821.3" stroke="url(#illustration_linear)" stroke-miterlimit="10"/>
    </g>
    <g>
      <path d="M1764.3 371.5L1516.4 529.7L1466.2 437.2L890.9 814L893.4 802.3L770.3 879" stroke="url(#illustration_linear)" stroke-miterlimit="10"/>
    </g>
    <g>
      <path d="M1755 311.7L1514.3 469.3" stroke="url(#illustration_linear)" stroke-miterlimit="10"/>
    </g>
    <g>
      <path d="M1467 502.4L876.4 880.4L879.6 865.9L754.2 942.3" stroke="url(#illustration_linear)" stroke-miterlimit="10"/>
    </g>
    <g>
      <path d="M1784 498.6L1521 657.7L1467.8 568.8L863.3 940.8L866.1 928.2L738.7 1002.8" stroke="url(#illustration_linear)" stroke-miterlimit="10"/>
    </g>
    <g>
      <path d="M1773.8 432.7L1518.5 591.5" stroke="url(#illustration_linear)" stroke-miterlimit="10"/>
    </g>
    <g>
      <path d="M1469 638.4L847.1 1015.6L850.5 999.7L720.9 1072.4" stroke="url(#illustration_linear)" stroke-miterlimit="10"/>
    </g>
    <g>
      <path d="M1806.3 642.7L1525.9 802.3L1469 714.5L831.1 1089.3L834.9 1071.7L702.2 1145.3" stroke="url(#illustration_linear)" stroke-miterlimit="10"/>
    </g>
    <g>
      <path d="M1794.7 568.1L1523.5 729.8" stroke="url(#illustration_linear)" stroke-miterlimit="10"/>
    </g>
    <g>
      <path d="M1470.5 793.8L812.7 1173.6L816.6 1155.8L682.2 1223.7" stroke="url(#illustration_linear)" stroke-miterlimit="10"/>
    </g>
    <g>
      <path d="M1831 802.3L1531.9 968.2L1471.6 880.8L796.1 1250.2L799.8 1233.3L662.8 1299.4" stroke="url(#illustration_linear)" stroke-miterlimit="10"/>
    </g>
    <g>
      <path d="M1818.4 720.9L1528.9 883.7" stroke="url(#illustration_linear)" stroke-miterlimit="10"/>
    </g>
    <g>
      <path d="M1845.9 898.4L1535.2 1062" stroke="url(#illustration_linear)" stroke-miterlimit="10"/>
    </g>
    <g>
      <path d="M1475.1 1173.6L734.2 1535.9L738.4 1515.9L592 1576.2" stroke="url(#illustration_linear)" stroke-miterlimit="10"/>
    </g>
    <g>
      <path d="M563 1689.5L714.2 1626.7L709.2 1650.2L1476.6 1295.3L1546.1 1373.2L1894.9 1214.7" stroke="url(#illustration_linear)" stroke-miterlimit="10"/>
    </g>
    <g>
      <path d="M613 1493.8L758.8 1422.5L754.4 1442.2L1473.8 1067.2L1538.5 1158.2L1861.1 996.2" stroke="url(#illustration_linear)" stroke-miterlimit="10"/>
    </g>
    <g>
      <path d="M1472.7 971.2L777.7 1337L781 1319.8L640 1388.7" stroke="url(#illustration_linear)" stroke-miterlimit="10"/>
    </g>
    <g>
      <path d="M1877.2 1100.2L1542.3 1263.9" stroke="url(#illustration_linear)" stroke-miterlimit="10"/>
    </g>
    <g>
      <path d="M1478.1 1412.7L685.5 1757.9L690.5 1736.1L537.2 1790.3" stroke="url(#illustration_linear)" stroke-miterlimit="10"/>
    </g>
    <g>
      <path d="M1935.7 1478L1554.9 1625.3L1479.7 1545.5L657.5 1888.1L663 1862.8L504.1 1920.1" stroke="url(#illustration_linear)" stroke-miterlimit="10"/>
    </g>
    <g>
      <path d="M1914.6 1342L1550.6 1500.6" stroke="url(#illustration_linear)" stroke-miterlimit="10"/>
    </g>
    <g>
      <path d="M1481.5 1692.5L629.8 2015.8L635.3 1990.7L473.1 2041.2" stroke="url(#illustration_linear)" stroke-miterlimit="10"/>
    </g>
    <g>
      <path d="M597.4 2164.9L1483.7 1854.8L1565.5 1927.2L1984.1 1790.3" stroke="url(#illustration_linear)" stroke-miterlimit="10"/>
    </g>
    <g>
      <path d="M1958.5 1625.3L1560.4 1776.5" stroke="url(#illustration_linear)" stroke-miterlimit="10"/>
    </g>
    <g>
      <path d="M1485.5 2029.5L564.9 2314.9L570.4 2289.2L397.8 2335.5" stroke="url(#illustration_linear)" stroke-miterlimit="10"/>
    </g>
    <g>
      <path d="M2043.9 2176.9L1578.2 2291.1L1488.1 2240.2L523.5 2505.2L529.8 2476.3L353 2510.5" stroke="url(#illustration_linear)" stroke-miterlimit="10"/>
    </g>
    <g>
      <path d="M2010.6 1961.7L1571.6 2097.8" stroke="url(#illustration_linear)" stroke-miterlimit="10"/>
    </g>
    <g>
      <path d="M1506.6 248.6L1462.9 167" stroke="url(#illustration_linear)" stroke-miterlimit="10"/>
    </g>
    <g>
      <path d="M1510.6 356.5L1464.2 272.6" stroke="url(#illustration_linear)" stroke-miterlimit="10"/>
    </g>
    <g>
      <path d="M1514.3 469.3L1465.5 379.9" stroke="url(#illustration_linear)" stroke-miterlimit="10"/>
    </g>
    <g>
      <path d="M1518.5 591.5L1467 502.4" stroke="url(#illustration_linear)" stroke-miterlimit="10"/>
    </g>
    <g>
      <path d="M1523.5 729.8L1469 638.4" stroke="url(#illustration_linear)" stroke-miterlimit="10"/>
    </g>
    <g>
      <path d="M1528.9 883.7L1470.5 793.8" stroke="url(#illustration_linear)" stroke-miterlimit="10"/>
    </g>
    <g>
      <path d="M1535.2 1062L1472.7 971.2" stroke="url(#illustration_linear)" stroke-miterlimit="10"/>
    </g>
    <g>
      <path d="M1542.3 1263.9L1475.1 1173.6" stroke="url(#illustration_linear)" stroke-miterlimit="10"/>
    </g>
    <g>
      <path d="M1550.6 1500.6L1478.1 1412.7" stroke="url(#illustration_linear)" stroke-miterlimit="10"/>
    </g>
    <g>
      <path d="M1560.4 1776.5L1481.5 1692.5" stroke="url(#illustration_linear)" stroke-miterlimit="10"/>
    </g>
    <g>
      <path d="M1571.6 2097.8L1485.5 2029.5" stroke="url(#illustration_linear)" stroke-miterlimit="10"/>
    </g>
    <g>
      <path d="M1959.1 681L1737.9 201.1" stroke="url(#illustration_linear)" stroke-miterlimit="10"/>
    </g>
    <g>
      <path d="M1988.2 817.5L1755 311.7" stroke="url(#illustration_linear)" stroke-miterlimit="10"/>
    </g>
    <g>
      <path d="M2020 966.8L1773.8 432.7" stroke="url(#illustration_linear)" stroke-miterlimit="10"/>
    </g>
    <g>
      <path d="M2055.6 1133.9L1794.7 568.1" stroke="url(#illustration_linear)" stroke-miterlimit="10"/>
    </g>
    <g>
      <path d="M2095.7 1322.3L1818.4 720.9" stroke="url(#illustration_linear)" stroke-miterlimit="10"/>
    </g>
    <g>
      <path d="M2142.3 1541.4L1845.9 898.4" stroke="url(#illustration_linear)" stroke-miterlimit="10"/>
    </g>
    <g>
      <path d="M2195.3 1790.3L1877.2 1100.2" stroke="url(#illustration_linear)" stroke-miterlimit="10"/>
    </g>
    <g>
      <path d="M2258.6 2087.4L1914.6 1341.3" stroke="url(#illustration_linear)" stroke-miterlimit="10"/>
    </g>
    <g>
      <path d="M2864.5 3304.2L2165 2958.3L1605.4 3019L1498 3006.2L392.5 3108.2L400.1 3073.2L205.2 3088.5" stroke="url(#illustration_linear)" stroke-miterlimit="10"/>
    </g>
    <g>
      <path d="M77.1997 3588.8L285.5 3600.8L281.7 3618.2L1505.7 3686.2L1625.7 3646.2L2277.7 3686.2L2914.8 3536.6" stroke="url(#illustration_linear)" stroke-miterlimit="10"/>
    </g>
    <g>
      <path d="M965 472.5L1462.3 119.1L1525.6 235.2" stroke="url(#illustration_linear)" stroke-miterlimit="10"/>
    </g>
    <g>
      <path d="M343.2 3335.3L1501.1 3308.9L1613.5 3298.2" stroke="url(#illustration_linear)" stroke-miterlimit="10"/>
    </g>
    <g>
      <path d="M1931.7 552.2L1721.7 96.6001L1506.6 248.6" stroke="url(#illustration_linear)" stroke-miterlimit="10"/>
    </g>
    <g>
      <path d="M2730.5 2670.6L2484.8 2420.5L2340.9 2454.7L1958.5 1625.3" stroke="url(#illustration_linear)" stroke-miterlimit="10"/>
    </g>
    <g>
      <path d="M2756 2790.4L2510.3 2540.3L2297.4 2583.8L2010.6 1961.7" stroke="url(#illustration_linear)" stroke-miterlimit="10"/>
    </g>
    <g>
      <path d="M2779.4 2899.8L2533.6 2649.6L2384.7 2681.2" stroke="url(#illustration_linear)" stroke-miterlimit="10"/>
    </g>
    <g>
      <path d="M2805.5 3022.5L2559.7 2772.2L2484.8 2783" stroke="url(#illustration_linear)" stroke-miterlimit="10"/>
    </g>
    <g>
      <path d="M2873 3340.4L2183.6 3078.4" stroke="url(#illustration_linear)" stroke-miterlimit="10"/>
    </g>
    <g>
      <path d="M2824 3109.7L2148.4 2528.6L2073.9 2364.9L1584.9 2481.2L1485.5 2451.2L485.2 2681.3L490.5 2657.2L307.5 2688.5" stroke="url(#illustration_linear)" stroke-miterlimit="10"/>
    </g>
    <g>
      <path d="M2842.8 3198.8L2121.6 2678.1" stroke="url(#illustration_linear)" stroke-miterlimit="10"/>
    </g>
    <g>
      <path d="M2887.5 3408.4L2226.3 3354" stroke="url(#illustration_linear)" stroke-miterlimit="10"/>
    </g>
    <g>
      <path d="M326.8 3410.5L1502.4 3412.2L1616.6 3387.1" stroke="url(#illustration_linear)" stroke-miterlimit="10"/>
    </g>
    <g>
      <path d="M311.5 3481.2L1505.7 3522.4L1620.1 3486.7" stroke="url(#illustration_linear)" stroke-miterlimit="10"/>
    </g>
    <g>
      <path d="M377 3179.7L1498.6 3098.2L1606.6 3101.2" stroke="url(#illustration_linear)" stroke-miterlimit="10"/>
    </g>
    <g>
      <path d="M360.3 3256.4L1499.9 3205.2L1610 3198" stroke="url(#illustration_linear)" stroke-miterlimit="10"/>
    </g>
    <g>
      <path d="M238.5 2958.3L430 2935.5L422.8 2968.7L1495.2 2820.4L1597.3 2835.2L2135.4 2767.6L2850.1 3232.7" stroke="url(#illustration_linear)" stroke-miterlimit="10"/>
    </g>
    <g>
      <path d="M221.7 3024.1L415 3004.8L407.8 3037.8L1496.4 2917.9L1600.6 2930.5L2153.9 2867.2L2858.2 3270.9" stroke="url(#illustration_linear)" stroke-miterlimit="10"/>
    </g>
    <g>
      <path d="M1590.8 2654.5L1492.9 2631.2L455.1 2820.4" stroke="url(#illustration_linear)" stroke-miterlimit="10"/>
    </g>
    <g>
      <path d="M2062.9 2299.4L1582.4 2410.5L1489.8 2376L498 2622.3L504.1 2594.6L322.8 2628.9" stroke="url(#illustration_linear)" stroke-miterlimit="10"/>
    </g>
    <g>
      <path d="M2053.7 2240.2L1580.3 2350.5L1488.9 2306.2L510.7 2564L516.6 2537.1L337.3 2571.9" stroke="url(#illustration_linear)" stroke-miterlimit="10"/>
    </g>
    <g>
      <path d="M537.3 2441.2L1487.3 2172.2L1575.9 2224.2" stroke="url(#illustration_linear)" stroke-miterlimit="10"/>
    </g>
    <g>
      <path d="M551.6 2375.9L1486.4 2102.2L1573.7 2162.5" stroke="url(#illustration_linear)" stroke-miterlimit="10"/>
    </g>
    <g>
      <path d="M2000.9 1899.2L1569.4 2039.2L1485.5 1965.5L575.6 2265.3L581.3 2239.1L410.2 2287.2" stroke="url(#illustration_linear)" stroke-miterlimit="10"/>
    </g>
    <g>
      <path d="M1992.3 1843.4L1567.5 1985.5L1483.7 1910.8L586.7 2214.2L592.7 2186.5L422.5 2239.1" stroke="url(#illustration_linear)" stroke-miterlimit="10"/>
    </g>
    <g>
      <path d="M609.4 2115.4L1483.7 1796.2L1562.4 1867.4" stroke="url(#illustration_linear)" stroke-miterlimit="10"/>
    </g>
    <g>
      <path d="M619.7 2062.5L1482.1 1745.2L1561.7 1819.5" stroke="url(#illustration_linear)" stroke-miterlimit="10"/>
    </g>
    <g>
      <path d="M1950.3 1572.1L1557.3 1724.2L1480.9 1645.9L639.8 1969.8L645.6 1943.2L484.2 1997.5" stroke="url(#illustration_linear)" stroke-miterlimit="10"/>
    </g>
    <g>
      <path d="M1943.4 1527.9L1555.4 1675.8L1480.3 1596.8L648.3 1930.7L653.5 1906.7L493.5 1961.5" stroke="url(#illustration_linear)" stroke-miterlimit="10"/>
    </g>
    <g>
      <path d="M667.2 1843.4L1479.1 1496.8L1553.2 1577.8" stroke="url(#illustration_linear)" stroke-miterlimit="10"/>
    </g>
    <g>
      <path d="M676.3 1801.7L1478.6 1456.7L1551.7 1534.2" stroke="url(#illustration_linear)" stroke-miterlimit="10"/>
    </g>
    <g>
      <path d="M1908 1299.4L1549 1456.7L1477.1 1372.4L693.7 1721.4L698.6 1699L545.7 1757.1" stroke="url(#illustration_linear)" stroke-miterlimit="10"/>
    </g>
    <g>
      <path d="M1901.4 1256.5L1547.4 1412.7L1477.1 1337L701.5 1685.9L706.8 1661.2L554.3 1723.6" stroke="url(#illustration_linear)" stroke-miterlimit="10"/>
    </g>
    <g>
      <path d="M718.6 1607.2L1476.1 1253.5L1544.6 1337" stroke="url(#illustration_linear)" stroke-miterlimit="10"/>
    </g>
    <g>
      <path d="M726.2 1572.1L1475.6 1214.7L1543.2 1298.5" stroke="url(#illustration_linear)" stroke-miterlimit="10"/>
    </g>
    <g>
      <path d="M1871.2 1062L1540.9 1232.5L1474.3 1138.2L741 1503.7L745 1485.6L599.3 1547.6" stroke="url(#illustration_linear)" stroke-miterlimit="10"/>
    </g>
    <g>
      <path d="M1865.7 1029L1538.6 1196.5L1474.3 1103.9L747.5 1473.9L751.6 1455.1L606.3 1520.5" stroke="url(#illustration_linear)" stroke-miterlimit="10"/>
    </g>
    <g>
      <path d="M762.6 1404.4L1474.1 1033.9L1537.3 1123.4" stroke="url(#illustration_linear)" stroke-miterlimit="10"/>
    </g>
    <g>
      <path d="M769.6 1372.4L1473.1 1002.8L1536.1 1090.5" stroke="url(#illustration_linear)" stroke-miterlimit="10"/>
    </g>
    <g>
      <path d="M1841.3 868.4L1533.9 1027.5L1472.3 940.4L783.9 1306.3L787.9 1288.1L647.6 1358.9" stroke="url(#illustration_linear)" stroke-miterlimit="10"/>
    </g>
    <g>
      <path d="M1835.9 834.1L1532.9 998.8L1472.3 912.4L790.3 1274.9L794 1260L655.6 1327.5" stroke="url(#illustration_linear)" stroke-miterlimit="10"/>
    </g>
    <g>
      <path d="M802.2 1222L1470.5 852.5L1530.8 937.9" stroke="url(#illustration_linear)" stroke-miterlimit="10"/>
    </g>
    <g>
      <path d="M807.4 1198.2L1470.5 823.5L1529.8 910.5" stroke="url(#illustration_linear)" stroke-miterlimit="10"/>
    </g>
    <g>
      <path d="M1813.8 691.2L1527.8 854.4L1470.2 768.2L819.1 1144.3L822.8 1127.5L688.3 1199.6" stroke="url(#illustration_linear)" stroke-miterlimit="10"/>
    </g>
    <g>
      <path d="M1809.5 666.4L1526.8 829.5L1469.9 742.5L825.1 1116.9L828.8 1099.5L695 1173.6" stroke="url(#illustration_linear)" stroke-miterlimit="10"/>
    </g>
    <g>
      <path d="M837.1 1063.7L1469.3 689.8L1525.1 775.2" stroke="url(#illustration_linear)" stroke-miterlimit="10"/>
    </g>
    <g>
      <path d="M842.4 1039.2L1469 665.5L1524.2 750.2" stroke="url(#illustration_linear)" stroke-miterlimit="10"/>
    </g>
    <g>
      <path d="M1790.9 543.1L1522.6 703.8L1468.4 616.7L852.1 990.4L856 974.4L726.4 1050.9" stroke="url(#illustration_linear)" stroke-miterlimit="10"/>
    </g>
    <g>
      <path d="M1786.1 522.5L1520.7 682.2L1468.1 594.2L858 965.5L861.1 951.2L732.8 1025.7" stroke="url(#illustration_linear)" stroke-miterlimit="10"/>
    </g>
    <g>
      <path d="M867.7 920.7L1467.5 545.7L1520.1 633.8" stroke="url(#illustration_linear)" stroke-miterlimit="10"/>
    </g>
    <g>
      <path d="M871.8 901.6L1467.3 525.2L1519.3 610.5" stroke="url(#illustration_linear)" stroke-miterlimit="10"/>
    </g>
    <g>
      <path d="M1770.5 411.7L1517.8 568.3L1466.7 481.5L881.2 858.5L884 845.5L759.1 922.9" stroke="url(#illustration_linear)" stroke-miterlimit="10"/>
    </g>
    <g>
      <path d="M1766.2 392.5L1516.1 549.4L1466.5 460.8L885.9 837.1L889.3 821.1L764.8 900.8" stroke="url(#illustration_linear)" stroke-miterlimit="10"/>
    </g>
    <g>
      <path d="M895.3 793.8L1465.9 416.8L1515.7 506.5" stroke="url(#illustration_linear)" stroke-miterlimit="10"/>
    </g>
    <g>
      <path d="M898.9 777.1L1465.7 398.7L1515 487.2" stroke="url(#illustration_linear)" stroke-miterlimit="10"/>
    </g>
    <g>
      <path d="M1752 291.8L1513.5 445.5L1465.2 360.2L908.1 734.7L910.8 722.3L790.7 799.6" stroke="url(#illustration_linear)" stroke-miterlimit="10"/>
    </g>
    <g>
      <path d="M1749 272.6L1512.9 427.5L1465 341.7L912.4 715.6L914.9 703.4L796.2 778.1" stroke="url(#illustration_linear)" stroke-miterlimit="10"/>
    </g>
    <g>
      <path d="M920.4 678.2L1464.6 305L1511.6 389.1" stroke="url(#illustration_linear)" stroke-miterlimit="10"/>
    </g>
    <g>
      <path d="M924.3 660.1L1464.4 289.3L1510.6 371.8" stroke="url(#illustration_linear)" stroke-miterlimit="10"/>
    </g>
    <g>
      <path d="M931.9 625.1L1463.9 253.2L1509.8 337.5L1735.3 184.5" stroke="url(#illustration_linear)" stroke-miterlimit="10"/>
    </g>
    <g>
      <path d="M935.7 607.6L1463.7 235.9L1509.1 319.2L1732.6 167" stroke="url(#illustration_linear)" stroke-miterlimit="10"/>
    </g>
    <g>
      <path d="M944.1 568.8L1463.3 200.2L1507.8 285" stroke="url(#illustration_linear)" stroke-miterlimit="10"/>
    </g>
    <g>
      <path d="M948.2 549.8L1463.3 184.5L1507.3 266" stroke="url(#illustration_linear)" stroke-miterlimit="10"/>
    </g>
    <g>
      <path d="M956.9 510.1L1462.7 151.2L1512.8 244.3" stroke="url(#illustration_linear)" stroke-miterlimit="10"/>
    </g>
    <g>
      <path d="M961.2 490.4L1462.5 136.1L1519.8 239.3" stroke="url(#illustration_linear)" stroke-miterlimit="10"/>
    </g>
    <g>
      <path d="M1070.3 365L1461.9 86.7L1538.2 226.3" stroke="url(#illustration_linear)" stroke-miterlimit="10"/>
    </g>
    <g>
      <path d="M1068.5 381.3L1462.1 101.9L1531.7 230.9" stroke="url(#illustration_linear)" stroke-miterlimit="10"/>
    </g>
    <g>
      <path d="M597.4 2164.9L604.2 2133.5L434.4 2192.4" stroke="url(#illustration_linear)" stroke-miterlimit="10"/>
    </g>
    <g>
      <path d="M2880.1 3374L2203.9 3209.4" stroke="url(#illustration_linear)" stroke-miterlimit="10"/>
    </g>
    <g>
      <path d="M2895.3 3445.3L2247.9 3493.9" stroke="url(#illustration_linear)" stroke-miterlimit="10"/>
    </g>
    <g>
      <path d="M2833.3 3154L2104.8 2570.1" stroke="url(#illustration_linear)" stroke-miterlimit="10"/>
    </g>
    <path class="illustration__guide" id="guide-3" stroke="red" stroke-width="10" d="M1448 66l15 3629"/>
    <path class="illustration__guide" id="guide-4" stroke="red" stroke-width="10" d="M1478 66l15 3629"/>
    <path class="illustration__guide" id="guide-5" stroke="red" stroke-width="10" d="M1714 91.2l555 3599"/>
    <path class="illustration__guide" id="guide-6" stroke="red" stroke-width="10" d="M1728 91.2l559.4 3597.4"/>
    <path class="illustration__guide" id="guide-2" stroke="red" stroke-width="10" d="M923.1 423.8l-766 3175"/>
    <path class="illustration__guide" id="guide-1" stroke="red" stroke-width="10" d="M2766.1 3582l-629-3123"/>

    <defs>
        <linearGradient id="illustration-1_linear" x1="1541.97" y1="-1020" x2="1698.47" y2="3706.74" gradientUnits="userSpaceOnUse">
            <stop stop-color="#555555"/>
            <stop offset="0.638779" stop-color="#D0D0D0"/>
            <stop offset="0.963623" stop-color="#555555"/>
        </linearGradient>
    </defs>
</svg>
