<svg width="3000" height="2807" viewBox="0 0 3000 2807" fill="none" xmlns="http://www.w3.org/2000/svg">
<g>
<path d="M1809.3 285.8L934.7 411.7V567.7L643 611.5V756.7L366 820.6V982L73.4004 1025.4V2015.4" />
</g>
<g>
<path d="M1821 294.5L946.3 420.3L945.3 576L652.3 618.2V765.3L375.4 828.9V990.6L81.4004 1034.2V2024.2" />
</g>
<g>
<path d="M1845.3 312.9L972.3 440.5V596.8L676.7 636.6V785.7L397.8 848.6V1011.2L100.7 1055.4V2045.4" />
</g>
<g>
<path d="M1860.5 324.3L985.8 450.6V607L691.9 648V797.4L410.8 860.2V1023.3L112 1067.7V2057.7" />
</g>
<g>
<path d="M1875.7 335.7L1000.8 461.9V618.2L707.1 659.4V809.2L423.9 871.7V1035.4L123.3 1080V2070" />
</g>
<g>
<path d="M1893.1 348.8L1017.9 474.7V631.1L724.5 672.4V822.6L438.8 884.9V1049.1L136.1 1094.1V2084.1" />
</g>
<g>
<path d="M1910.4 363.4L1035.5 488V644.3L741.8 687V836L453.8 898.1V1062.9L149 1108.2V2098.2" />
</g>
<g>
<path d="M1929.9 376.5L1054 501.8V658.2L761.3 700.1V851.1L470.6 913V1078.4L163.5 1124V2114" />
</g>
<g>
<path d="M1951.6 392.8L1074.7 517.4V673.8L783 716.4V867.9L489.2 929.5V1095.7L179.6 1141.7V2131.7" />
</g>
<g>
<path d="M1973.3 409.1L1096.9 534.1V690.5L804.7 732.7V884.7L508.8 945.7L507.9 1112.9L195.7 1159.3V2149.3" />
</g>
<g>
<path d="M1995 425.4L1119.3 550.9V707.3L826.4 749V901.5L526.5 962.4V1130.1L211.7 1176.9V2166.9" />
</g>
<g>
<g>
<path d="M1749.2 766L2229.6 699.4" />
<path d="M1250.6 796.2L1106.6 855L992.1 870.9L989.1 1027.3L666.5 1086.1V1259.3L332.4 1308.9V2299" />
</g>
</g>
<g>
<path d="M1796.9 819.1L2320.7 747.8" />
<path d="M1286 918.2L1259.6 866.7L1170.9 903.4L1052 920.5V1076L720.6 1134V1309.3L379.1 1360V2350" />
</g>
<g>
<path d="M2489 962.1L808.3 1211.5V1390.3L454.7 1442.8V2432.8" />
</g>
<g>
<path d="M2540.7 989.2L840.1 1239.5V1419.5L482.1 1472.7V2462.7" />
</g>
<g>
<path d="M2592.8 1016.5L871.8 1267.6V1448.8L509.4 1502.7V2492.7" />
</g>
<g>
<path d="M2640.3 1041.3L905.4 1297.3V1479.8L538.4 1534.4V2524.4" />
</g>
<g>
<path d="M2734.3 1282.2L597.9 1599.5V2589.5" />
</g>
<g>
<path d="M2790.6 1311.8L628.5 1633V2623" />
</g>
<g>
<path d="M2850.5 1342.9L660.7 1668.2V2658.4" />
</g>
<g>
<path d="M1832.3 303.1L958.4 430.5V586.9L663.7 626.8V775.6L386.6 838.7V1000.9L91.0996 1044.8V2034.8" />
</g>
<g>
<g>
<path d="M2069.7 481.4L1559.7 549.5V610" />
<path d="M1167.9 731.2L1021 790.8L902.4 806.1V960.2L591.9 1020.2V1190.4L268.1 1238.5V2228.5" />
<path d="M2098.2 502.9L1593.2 566.7V666.5" />
</g>
</g>
<g>
<g>
<path d="M1196.8 753.9L1050.5 812.9L930.6 827.3V982L616.1 1041.6V1212.8L289 1261.4V2251.4" />
<path d="M2128.2 525.4L1636.5 588.9V739.8" />
</g>
</g>
<g>
<path d="M939 1326.9V1510.9L567.3 1566.1V2556.1" />
<g>
<path d="M2675.6 1252.9V1067.8" />
</g>
<g>
<path d="M2664.4 1252.9V1069.5" />
</g>
<g>
<path d="M2653.2 1255.9V1071.1" />
</g>
<g>
<path d="M2640.1 1258.1V1073.1" />
</g>
<g>
<path d="M2627.1 1260.1V1075" />
</g>
<g>
<path d="M2612.2 1262.3V1077.3" />
</g>
<g>
<path d="M2597.2 1264.5V1081" />
</g>
<g>
<path d="M2580.4 1266.6V1082" />
</g>
<g>
<path d="M2561.8 1270V1084.8" />
</g>
<g>
<path d="M2543.1 1271.7L2542.2 1087.8" />
</g>
<g>
<path d="M2524.4 1275.4V1090.4" />
</g>
<g>
<path d="M2503.9 1278.4V1093.4" />
</g>
<g>
<path d="M2481.5 1282.2V1096.8" />
</g>
<g>
<path d="M2459.1 1285.1V1100.1" />
</g>
<g>
<path d="M2434.9 1287.8V1103.7" />
</g>
<g>
<path d="M2410.6 1292.3V1108.3" />
</g>
<g>
<path d="M2384.5 1295.8V1111.3" />
</g>
<g>
<path d="M2358.3 1300V1115.1" />
</g>
<g>
<path d="M2330.3 1304.2V1119.3" />
</g>
<g>
<path d="M2302.3 1308.9V1124" />
</g>
<g>
<path d="M2272.5 1312.8V1127.5" />
</g>
<g>
<path d="M2242.6 1317.2V1132.4" />
</g>
<g>
<path d="M2210.9 1321.9V1137.1" />
</g>
<g>
<path d="M2179.2 1326.6V1141.9" />
</g>
<g>
<path d="M2145.6 1331.6V1146.3" />
</g>
<g>
<path d="M2112 1336.6V1151.9" />
</g>
<g>
<path d="M2078 1157V1341.7" />
</g>
<g>
<path d="M2042 1162.4V1347" />
</g>
<g>
<path d="M2006 1167.7V1352.4" />
</g>
<g>
<path d="M1968 1173.4V1358" />
</g>
<g>
<path d="M1930 1179.1V1363.7" />
</g>
<g>
<path d="M1890 1185V1369.6" />
</g>
<g>
<path d="M1850 1191V1375.5" />
</g>
<g>
<path d="M1808 1197.3V1381.8" />
</g>
<g>
<path d="M1766 1203.5V1388" />
</g>
<g>
<path d="M1722 1210.1V1394.5" />
</g>
<g>
<path d="M1678 1216.7V1401.1" />
</g>
<g>
<path d="M1632 1223.5V1407.9" />
</g>
<g>
<path d="M1586 1230.4V1414.7" />
</g>
<g>
<path d="M1538 1237.6V1421.9" />
</g>
<g>
<path d="M1490 1244.7V1429" />
</g>
<g>
<path d="M1440 1252.2V1436.4" />
</g>
<g>
<path d="M1390 1259.6V1443.9" />
</g>
<g>
<path d="M1338 1267.4V1451.6" />
</g>
<g>
<path d="M1286 1275.2V1459.3" />
</g>
<g>
<path d="M1232 1282.2V1467.3" />
</g>
<g>
<path d="M1176 1291.6V1475.6" />
</g>
<g>
<path d="M1120 1299.9V1484" />
</g>
<g>
<path d="M1062 1308.9V1492.6" />
</g>
<g>
<path d="M1004 1316.2V1502.7" />
</g>
</g>
<g>
<path d="M1119.3 969.1V1128L778.5 1185.1V1362.7L429 1414.6V2404.6" />
<g>
<path d="M1176 1124V962.1" />
</g>
<g>
<path d="M1232 1116.5V954.7" />
</g>
<g>
<path d="M1286 1108.2V947.3" />
</g>
<g>
<path d="M1338 1100.5V941.1" />
</g>
<g>
<path d="M1390 1092.6V934.4" />
</g>
<g>
<path d="M1440 1085V928.8" />
</g>
<g>
<path d="M1490 1077.5V921.6" />
</g>
<g>
<path d="M1538 915.4V1067.7" />
</g>
<g>
<path d="M1586 1062.9V909.3" />
</g>
<g>
<path d="M1632 1055.4V903.4" />
</g>
<g>
<path d="M1678 1049V897.5" />
</g>
<g>
<path d="M1722 1041.3V891.8" />
</g>
<g>
<path d="M1766 1035.6V886.2" />
</g>
<g>
<path d="M1808 1027.7V880.8" />
</g>
<g>
<path d="M1850 1023V875.4" />
</g>
<g>
<path d="M1890 1014.6V869.9" />
</g>
<g>
<path d="M1930 1006.9V865.1" />
</g>
<g>
<path d="M1968 1005.1V860.3" />
</g>
<g>
<path d="M2006 999.4V855.4" />
</g>
<g>
<path d="M2042 993.9V850.8" />
</g>
<g>
<path d="M2078 846.2V988.5" />
</g>
<g>
<path d="M2112 983.4V841.8" />
</g>
<g>
<path d="M2145.6 978.3V837.5" />
</g>
<g>
<path d="M2179.2 973.2V833.2" />
</g>
<g>
<path d="M2210.9 968.4V829.1" />
</g>
<g>
<path d="M2242.6 963.6V825" />
</g>
<g>
<path d="M2272.5 959.1V821.2" />
</g>
<g>
<path d="M2302.3 954.3V817.4" />
</g>
<g>
<path d="M2330.3 950.3V813.8" />
</g>
<g>
<path d="M2358.3 946.1V810.2" />
</g>
<g>
<path d="M2384.5 942.3V806.8" />
</g>
<g>
<path d="M2410.6 942.3V803.5" />
</g>
</g>
<g>
<g>
<path d="M1224.3 775.5L1080.2 835.2L958.8 849V1003.8L640.4 1063.1V1235.2L309.9 1284.3V2274.3" />
<path d="M2155.9 546.2L1681.4 612V725.6" />
<path d="M1720.7 632.1V734.2" />
<path d="M1766 738.3V626" />
<path d="M1808 732.4V620.1" />
<path d="M1850 725.6V614.6" />
<path d="M1890 721.1V609.2" />
<path d="M1930 715.5V603.8" />
<path d="M1968 710.3V598.6" />
<path d="M2006 705V593.5" />
<path d="M2042 699.4V589.1" />
<path d="M2078 695V584.7" />
<path d="M2112 690.3V578.6" />
<path d="M2145.6 685.6V574.5" />
<path d="M2179.2 682.1V571.7" />
</g>
</g>
<g>
<g>
<path d="M2018.9 443.3L1141.9 567.9V710.8L1292.7 829.2L1338 911.3" />
<path d="M1084.4 732.7L850.3 767V919.9L547.1 980.6V1149.1L229.4 1196.2V2186.2" />
<path d="M1167.9 700.7V565" />
<path d="M1196.8 560.6V689.4L1329.9 787L1390 903.4" />
<path d="M1228.2 556.7V677.3" />
<path d="M1259.6 551.5V665.1L1368.1 743.7L1440 897.5" />
<path d="M1289.4 547.4V653.5" />
<path d="M1320.9 542.5V641.2L1403.1 704L1490 892.4" />
<path d="M1350.6 538.7V629.7" />
<path d="M1381.7 533.8V618.2L1440 662.2L1538 885.1" />
<path d="M1412.8 529.4V605.5" />
<path d="M1440.8 525.4V594.7" />
<path d="M1468.9 521.4V583.2" />
<path d="M1500 517V571.7" />
<path d="M1598 877.2L1472.7 625L1425.9 600.5" />
<path d="M1649.8 870.4L1506.3 588.7L1481.4 578.9" />
</g>
</g>
<g>
<path d="M992.1 769.6L876.3 786.5V940.1L569.5 1000.4V1169.7L248.8 1217.4V2207.4" />
<path d="M1709.2 862.6L1530.1 560V534.3L2044.9 462.9" />
</g>
<g>
<g>
<path d="M1280.6 819.8L1137.4 878.2L1019.5 894.1V1050.8L692.6 1109.2V1283.4L355 1333.6V2323.6" />
<path d="M1772.8 792.3L2272.5 725.6" />
</g>
</g>
<g>
<g>
<path d="M2372.7 775.5L1084.6 944.6V1101.1L748.6 1159.3V1335.1L403.2 1386.4V2376.4" />
<path d="M1655.4 771.7L1693.6 704L1822.5 847.7" />
<path d="M1693.6 704L1729.2 860" />
</g>
</g>
<g>
<g>
<path d="M2908.4 2364.3V1374.3" />
</g>
<g>
<path d="M2897.2 2366V1376" />
</g>
<g>
<path d="M2886 2367.6V1377.6" />
</g>
<g>
<path d="M2872.9 2371.5V1379.6" />
</g>
<g>
<path d="M2859.9 2371.5V1381.5" />
</g>
<g>
<path d="M2844.9 2373.7V1383.7" />
</g>
<g>
<path d="M2830 2378.5V1386" />
</g>
<g>
<path d="M2813.2 2378.5V1388.5" />
</g>
<g>
<path d="M2794.6 2380.6V1391.2" />
</g>
<g>
<path d="M2775.4 2384.1V1394" />
</g>
<g>
<path d="M2757.2 2386.8V1396.8" />
</g>
<g>
<path d="M2736.7 2389.8V1399.8" />
</g>
<g>
<path d="M2714.3 2393.2V1401.1" />
</g>
<g>
<path d="M2691.9 2396.5V1406.5" />
</g>
<g>
<path d="M2667.6 2400.1V1407.9" />
</g>
<g>
<path d="M2643.4 2403.7V1413.7" />
</g>
<g>
<path d="M2617.3 2407.6V1417.6" />
</g>
<g>
<path d="M2591.1 2411.4V1421.4" />
</g>
<g>
<path d="M2563.1 2415.6V1425.6" />
</g>
<g>
<path d="M2535.1 2419.8V1429.8" />
</g>
<g>
<path d="M2505.3 2424.2V1434.3" />
</g>
<g>
<path d="M2475.4 2428.6V1438.6" />
</g>
<g>
<path d="M2443.7 2432.8V1443.9" />
</g>
<g>
<path d="M2412 2438.1V1448.1" />
</g>
<g>
<path d="M2378.4 2443V1453" />
</g>
<g>
<path d="M2344.8 2448V1458" />
</g>
<g>
<path d="M2310.8 1464.3V2453.1" />
</g>
<g>
<path d="M2274.8 1468.4V2458.4" />
</g>
<g>
<path d="M2238.8 1473.8V2463.8" />
</g>
<g>
<path d="M2200.8 1479.4V2468.6" />
</g>
<g>
<path d="M2162.8 1485.1V2475.1" />
</g>
<g>
<path d="M2122.8 1491V2481" />
</g>
<g>
<path d="M2082.8 1497V2487" />
</g>
<g>
<path d="M2040.8 1503.2V2492.7" />
</g>
<g>
<path d="M1998.8 1509.4V2499.4" />
</g>
<g>
<path d="M1954.8 1516V2506" />
</g>
<g>
<path d="M1910.8 1524.9V2512.5" />
</g>
<g>
<path d="M1864.8 1529.3V2519.3" />
</g>
<g>
<path d="M1818.8 1536.2V2526.2" />
</g>
<g>
<path d="M1770.8 1543.3V2533.3" />
</g>
<g>
<path d="M1722.8 1550.4V2540.4" />
</g>
<g>
<path d="M1672.8 1557.9V2547.9" />
</g>
<g>
<path d="M1622.8 1565.3V2555.3" />
</g>
<g>
<path d="M1570.8 1573V2563" />
</g>
<g>
<path d="M1518.8 1580.7V2570.7" />
</g>
<g>
<path d="M1464.8 1588.8V2578.8" />
</g>
<g>
<path d="M1408.8 1597.1V2587.1" />
</g>
<g>
<path d="M1352.8 1608.4V2595.4" />
</g>
<g>
<path d="M1294.8 1614V2604" />
</g>
<g>
<path d="M1236.8 1622.6V2612.6" />
</g>
<g>
<path d="M1176.8 1631.5V2621.5" />
</g>
<g>
<path d="M1116.8 1640.4V2630.4" />
</g>
<g>
<path d="M1054.8 1649.7V2639.7" />
</g>
<g>
<path d="M992.8 1658.9V2648.9" />
</g>
<g>
<path d="M928.8 1668.4V2658.4" />
</g>
<g>
<path d="M863.8 1678V2668" />
</g>
<g>
<path d="M805.8 1686.6V2676.6" />
</g>
<g>
<path d="M748.8 1695.1V2685.1" />
</g>
<g>
<path d="M692.8 1703.4V2693.4" />
</g>
</g>
<line class="illustration__guide" id="guide-2" x1="67.121" y1="1099" x2="700.121" y2="1811" stroke="#FF0000" stroke-width="3"/>
<line class="illustration__guide" id="guide-1" x1="1623.92" y1="286.817" x2="2329.92" y2="836.817" stroke="#FF0000" stroke-width="3"/>
</svg>
