<svg width="1758" height="1946" viewBox="0 0 1758 1946" fill="none" xmlns="http://www.w3.org/2000/svg">
<g>
<path id="Vector" d="M1123.8 1537.2V728.5L1143 736.8V336.1" />
</g>
<g>
<path d="M1174.8 1154.1V776.9L1201 784V392.9" />
</g>
<g>
<path d="M1198.8 1165.7V800.7L1229 806.8V420.4" />
</g>
<g>
<path d="M1218.8 1174.9V820.7L1255 825.1V446" />
</g>
<g>
<path d="M1236.8 1182.9V840.8L1281 845.4V471.8" />
</g>
<g>
<path d="M1266.8 1196.1V868L1305 868.2V495.6" />
</g>
<g>
<path d="M1290.8 1206.5V892.2L1329 892V519.7" />
</g>
<g>
<path d="M1310.8 1215.3V912.3L1351 911.3V541.9" />
</g>
<g>
<path d="M1330.8 1224.1V932.2L1373 927.6V564.4" />
</g>
<g>
<path d="M1393 585V942.4L1350.8 952V1232.9" />
</g>
<g>
<path d="M1413 605.8V960.8L1370.8 971.5V1241.8" />
</g>
<g>
<path d="M1431 624.8V975.5L1390.8 990.7V1250.8" />
</g>
<g>
<path d="M1414.8 1261.8V1010.3L1449 990.6V644" />
</g>
<g>
<path d="M1429.8 1268.3V1025.2L1465 1004.4V661.4" />
</g>
<g>
<path d="M1444.8 1275.8V1037.7L1479 1016.5V676.7" />
</g>
<g>
<path d="M1478.8 1292.4V1072.6L1513 1052V715" />
</g>
<g>
<path d="M1460.8 1283.5V1053.9L1491 1034.9V690.1" />
</g>
<g>
<path d="M1534.8 1321.8V1120.5L1585 1104.3V802.4" />
</g>
<g>
<path d="M1558.8 1335.2V1135.7L1601 1121.6V823.6" />
</g>
<g>
<path d="M1617 845.8V1139.8L1582.2 1151.7V1349.1" />
</g>
<g>
<path d="M1635 872.4V1157.4L1608.2 1169.6V1365.7" />
</g>
<g>
<path d="M1636.2 1385.3V1187.6L1655 1177.9V904.8" />
</g>
<g>
<path d="M1663 1406.1V1203.7L1677 1196.3V946.4" />
</g>
<g>
<path d="M820.6 74.8V554L844.6 595.8V993.3" />
</g>
<g>
<path d="M798.6 93.6V567.9L822.6 611.9V1003.2" />
</g>
<g>
<path d="M776.6 112.5V581.7L801.6 621.9V1010.5" />
</g>
<g>
<path d="M752.6 133.1V596.8L779.6 635.3V1019.1" />
</g>
<g>
<path d="M728.6 152.4V611.9L756.6 649.2V1028.5" />
</g>
<g>
<path d="M702.6 175.9V628.3L731.7 664.4V1038.5" />
</g>
<g>
<path d="M676.6 198.2V644.6L707 679.3V1048.3" />
</g>
<g>
<path d="M648.6 222.2V662.3L681.6 694.7V1058.5" />
</g>
<g>
<path d="M620.6 246.3V679.9L654.6 711.1V1069.3" />
</g>
<g>
<path d="M590.6 272V701.2L626.6 728.1V1080.5" />
</g>
<g>
<path d="M560.6 297.7V717.6L597.6 745.7V1092.1" />
</g>
<g>
<path d="M528.6 325.1V737.7L567.6 763.9V1104.1" />
</g>
<g>
<path d="M496.6 352.6V757.9L536.6 782.7V1116.5" />
</g>
<g>
<path d="M1496.8 1301.5V1086.8L1533 1067.7V738.3" />
</g>
<g>
<path d="M1514.8 1310.9V1103.6L1557 1088.1V767.1" />
</g>
<g>
<path d="M860.6 42V530L887.3 575.2V1001.4" />
</g>
<g>
<path d="M840.5 57.6057V540.5L866.3 584.5V998" />
</g>
<g>
<path d="M464.6 380V778L504.6 802.2V1129.3" />
</g>
<g>
<path d="M868.9 1887.6V1504.2L858.8 1475.1V987.6" />
</g>
<g>
<path d="M1292.5 1876.4V1577.8L1319.9 1570.9V1218.4" />
</g>
<g>
<path d="M1322.5 1875.1V1583L1343.9 1577.1V1228.8" />
</g>
<g>
<path d="M1352.5 1874V1589.3L1381.9 1583.9V1245.7" />
</g>
<g>
<path d="M1384.5 1872.6V1599.4L1411.9 1589.3V1259.3" />
</g>
<g>
<path d="M1416.5 1871V1605.4L1445.9 1595.6V1275.3" />
</g>
<g>
<path d="M1450.5 1869.5V1615L1485.9 1603.3V1295" />
</g>
<g>
<path d="M1484.5 1867.9V1623.8L1525.9 1611.6V1316" />
</g>
<g>
<path d="M1520.5 1866.3V1638.3L1565.9 1620.8V1338.7" />
</g>
<g>
<path d="M1545.9 1859.7V1652L1589.9 1628.9V1353.4" />
</g>
<g>
<path d="M1651.9 1397.1V1646.7L1617.9 1663.5V1861.8" />
</g>
<g>
<path d="M1671.9 1413.6V1655.4L1651.9 1664.7V1862.8" />
</g>
<g>
<path d="M1154.9 1881.8V1147.2L1149.8 1141.3V753.5L1173 761.2V365.5" />
</g>
<g>
<path d="M1092.9 1880.6V1119.2L1096.8 1112.5V701.2" />
</g>
<g>
<path d="M1060.9 1884.7V1104.2L1068.8 1096.4V675.7" />
</g>
<g>
<path d="M1024.9 1519.7V1086.5L1039.8 1079.3V650.1" />
</g>
<g>
<path d="M986.9 1513.4V1066.8L1009.8 1061V624.7" />
</g>
<g>
<path d="M946.9 1507.9V1044.6L979.8 1042.3V600.4" />
</g>
<g>
<path d="M904.9 1888.3V1019.1L947.8 1021.6V575.8" />
</g>
<g>
<path d="M832.6 998.1V1479.5L854.9 1505.1V1887" />
</g>
<g>
<path d="M812.6 1006V1482.8L838.9 1506.5V1885.7" />
</g>
<g>
<path d="M790.6 1014.8V1486.5L820.9 1508.3V1885" />
</g>
<g>
<path d="M768.6 1024.5V1490.2L800.9 1510.6V1884.2" />
</g>
<g>
<path d="M744.6 1033.2V1494.6L776.9 1513.5V1881.8" />
</g>
<g>
<path d="M720.6 1042.8V1498.7L751.9 1516.3V1881.8" />
</g>
<g>
<path d="M694.6 1053.2V1503.2L725.9 1520.6V1880.5" />
</g>
<g>
<path d="M668.6 1063.6V1507.7L698.9 1524.7V1877.6" />
</g>
<g>
<path d="M640.6 1074.8V1512.5L670.9 1529.1V1875.6" />
</g>
<g>
<path d="M612.6 1086V1517.4L641.9 1533.8V1873.6" />
</g>
<g>
<path d="M582.6 1097.9V1522.5L611.9 1538.9V1871.5" />
</g>
<g>
<path d="M581.9 1869.5V1544.1L552.6 1527.7V1109.9" />
</g>
<g>
<path d="M520.6 1122.7V1533.2L560.3 1552.3" />
</g>
<g>
<path d="M488.6 902.5V1538.7L559.7 1571" />
</g>
<g>
<path d="M457.6 1145V1544.1L560.3 1594.3V1868" />
</g>
<g>
<path d="M1577.9 1860.7V1660.5L1617.9 1637V1372" />
</g>
<g>
<path d="M282.6 1217V1572.6L321.3 1592.3V1851.4" />
</g>
<g>
<path d="M214.1 1240.8V1578.5L245.8 1600.4V1846.2" />
</g>
<g>
<path d="M190.1 1250.8V1582.7L220.7 1603.2V1844.4" />
</g>
<g>
<path d="M166.1 1260.8V1586.8L195.2 1606V1842.6" />
</g>
<g>
<path d="M140.1 1271.6V1590.3L169.8 1608.7V1840.9" />
</g>
<g>
<path d="M114.1 1282.4V1595.7L146 1611.3V1839.2" />
</g>
<g>
<path d="M86.1001 1294V1600.5L119.1 1614.3V1837.3" />
</g>
<g>
<path d="M58.1001 1019.1V1605.3L92.5001 1617.2V1835.5" />
</g>
<g>
<path d="M345.8 581.6V1578.8L368 1587.1V1854.6" />
</g>
<g>
<path d="M271.7 1847.9V1597.6L236.1 1574.8V1231.7" />
</g>
<g>
<path d="M313.8 561.5V1576.2L345.8 1589.5V1853.1" />
</g>
<g>
<path d="M1545 752.5V1080.4" />
</g>
<g>
<path d="M1184.9 1880.6V1160.3" />
</g>
<g>
<path d="M1213.9 1172.9V1878.6" />
</g>
<g>
<path d="M1241.9 1563V1184.9" />
</g>
<g>
<path d="M1268.9 1565.9V1196.4" />
</g>
<g>
<path d="M1294.9 1568.5V1207.6" />
</g>
<g>
<path d="M1363.9 1578.7V1237.7" />
</g>
<g>
<path d="M1397.9 1252.9V1586.8" />
</g>
<g>
<path d="M1423.9 1264.9V1591.5" />
</g>
<g>
<path d="M1435.9 1270.5V1593.7" />
</g>
<g>
<path d="M1455.9 1280.1V1597.5" />
</g>
<g>
<path d="M1465.9 1285V1599.4" />
</g>
<g>
<path d="M1475.9 1290V1601.4" />
</g>
<g>
<path d="M1495.9 1300.1V1605.4" />
</g>
<g>
<path d="M1505.9 1305.3V1607.4" />
</g>
<g>
<path d="M1515.9 1310.6V1609.5" />
</g>
<g>
<path d="M1535.9 1321.5V1613.8" />
</g>
<g>
<path d="M1545.9 1326.6V1616.1" />
</g>
<g>
<path d="M1555.9 1332.8V1618.4" />
</g>
<g>
<path d="M1577.9 1346V1623.8" />
</g>
<g>
<path d="M1603.9 1362.5V1630.8" />
</g>
<g>
<path d="M1565.9 1659.7V1860.7" />
</g>
<g>
<path d="M1633.9 1383.4V1640.1" />
</g>
<g>
<path d="M1695.9 1435.5V1669" />
</g>
<g>
<path d="M452.6 919.1V1145" />
</g>
<g>
<path d="M880.9 1503.6V1887.6" />
</g>
<g>
<path d="M893.9 1503.6V1887.6" />
</g>
<g>
<path d="M912.9 1503.6V1887.6" />
</g>
<g>
<path d="M922.9 1504.6V1887.6" />
</g>
<g>
<path d="M932.9 1505.5V1887.5" />
</g>
<g>
<path d="M942.9 1506.6V1887.4" />
</g>
<g>
<path d="M952.9 1507.9V1887.4" />
</g>
<g>
<path d="M962.9 1509V1887.4" />
</g>
<g>
<path d="M972.9 1510.6V1887.4" />
</g>
<g>
<path d="M982.9 1511.8V1887.4" />
</g>
<g>
<path d="M992.9 1513.4V1887.4" />
</g>
<g>
<path d="M1004.9 1515.3V1886.3" />
</g>
<g>
<path d="M1016.9 1517.3V1886" />
</g>
<g>
<path d="M1030.9 1519.7V1886" />
</g>
<g>
<path d="M1046.9 1522.6V1886" />
</g>
<g>
<path d="M1077.9 1529.1V1884.7" />
</g>
<g>
<path d="M1111.9 1536.3V1883.6" />
</g>
<g>
<path d="M1132.9 1540.5V1882.3" />
</g>
<g>
<path d="M1236.5 1878.6V1562.6" />
</g>
<g>
<path d="M1264.5 1877.3V1569.1" />
</g>
<g>
<path d="M1555.9 1660V1859.7" />
</g>
<g>
<path d="M1589.9 1662.5V1861" />
</g>
<g>
<path d="M1603.9 1663.5V1861.4" />
</g>
<g>
<path d="M1633.9 1664.1V1862.3" />
</g>
<g>
<path d="M1671.9 1665.4V1863.7" />
</g>
<g>
<path d="M278.6 542.1V894.7" />
</g>
<g>
<path d="M258.1 559.6V906.6" />
</g>
<g>
<path d="M236.1 578.4V919.4" />
</g>
<g>
<path d="M214.1 597.1V932.1" />
</g>
<g>
<path d="M190.1 617.1V946" />
</g>
<g>
<path d="M166.1 638.1V960" />
</g>
<g>
<path d="M140.1 660.6V975.1" />
</g>
<g>
<path d="M114.1 682.4V990.1" />
</g>
<g>
<path d="M86.1001 706.3V1006.4" />
</g>
<g>
<path d="M75.1001 1298.5V1012.8" />
</g>
<g>
<path d="M99.1001 1288.6V998.1" />
</g>
<g>
<path d="M126.1 1277.4V982.8" />
</g>
<g>
<path d="M152.1 1266.6V969.4" />
</g>
<g>
<path d="M178.6 1255.6V955.2" />
</g>
<g>
<path d="M202.1 1245.8V939.9" />
</g>
<g>
<path d="M225 1236.9V926.5" />
</g>
<g>
<path d="M246.2 1227.5V913.7" />
</g>
<g>
<path d="M267.4 1218.7V900.5" />
</g>
<g>
<path d="M58.1001 729V1019.1" />
</g>
<g>
<path d="M463.2 1546.8V1575.7" />
</g>
<g>
<path d="M291.8 1217V898.4" />
</g>
<g>
<path d="M327.8 913.7V1228.4" />
</g>
<g>
<path d="M360.8 926.5V1235.6" />
</g>
<g>
<path d="M375.8 1583.3V602.3" />
</g>
<g>
<path d="M390.8 939.4V1243.3" />
</g>
<g>
<path d="M393.5 1584.3V1856.5" />
</g>
<g>
<path d="M397.5 1248.1V1582.9" />
</g>
<g>
<path d="M397.5 613.7V939" />
</g>
<g>
<path d="M469.9 782.4V1139" />
</g>
<g>
<path d="M437.9 926.5V1578.5" />
</g>
<g>
<path d="M442.9 590.4V926.5" />
</g>
<g>
<path d="M422.9 934.5V1242.5" />
</g>
<g>
<path d="M415.9 1245.3V1580.9" />
</g>
<g>
<path d="M415.9 609.7V938.4" />
</g>
<g>
<path d="M406.8 942.3V1248.1" />
</g>
<g>
<path d="M421.5 1581.3V1858.7" />
</g>
<g>
<path d="M449.3 1578.2V1860.7" />
</g>
<g>
<path d="M474.5 1575.2V1862.6" />
</g>
<g>
<path d="M500 1573.1V1864.3" />
</g>
<g>
<path d="M530.8 1579.5V1864.3" />
</g>
<g>
<path d="M1503 1043.3V703.6" />
</g>
<g>
<path d="M915.8 999.6V552.6" />
</g>
<g>
<path d="M1571 784.5V1097.8" />
</g>
<g>
<path d="M1402.8 1256.3V1002" />
</g>
<g>
<path d="M1252.8 1189.9V853.9" />
</g>
<g>
<path d="M1278.8 880.1V1201.3" />
</g>
<g>
<path d="M1300.8 1210.9V902.3" />
</g>
<g>
<path d="M1340.8 1228.5V942.1" />
</g>
<g>
<path d="M1321.8 1219.7V922.3" />
</g>
<g>
<path d="M1360.8 1237.3V961.8" />
</g>
<g>
<path d="M1380.8 1246.3V981.1" />
</g>
<g>
<path d="M1113 306.7V712.5" />
</g>
<g>
<path d="M1081 275.1V686.6" />
</g>
<g>
<path d="M1049 243.3V661.4" />
</g>
<g>
<path d="M1015 209.2V633.1" />
</g>
<g>
<path d="M979 172.5V603.8" />
</g>
<g>
<path d="M941 132.9V572.7" />
</g>
<g>
<path d="M901 89.8V562.4" />
</g>
<g>
<path d="M1523 1057.8V726.5" />
</g>
<g>
<path d="M258 1222.5V1571L297 1594.5V1849.5" />
</g>

<line class="illustration__guide" id="guide-10" x1="10" y1="469.5" x2="1742" y2="469.5" stroke="#FF0000"/>
<line class="illustration__guide" id="guide-9" x1="10" y1="271.5" x2="1742" y2="271.5" stroke="#FF0000"/>
<line class="illustration__guide" id="guide-8" x1="10" y1="563.5" x2="1742" y2="563.5" stroke="#FF0000"/>
<line class="illustration__guide" id="guide-7" x1="10" y1="853.5" x2="1742" y2="853.5" stroke="#FF0000"/>
<line class="illustration__guide" id="guide-6" x1="10" y1="968.5" x2="1742" y2="968.5" stroke="#FF0000"/>
<line class="illustration__guide" id="guide-5" x1="10" y1="1104.5" x2="1742" y2="1104.5" stroke="#FF0000"/>
<line class="illustration__guide" id="guide-4" x1="10" y1="1255.5" x2="1742" y2="1255.5" stroke="#FF0000"/>
<line class="illustration__guide" id="guide-3" x1="10" y1="1449.5" x2="1742" y2="1449.5" stroke="#FF0000"/>
<line class="illustration__guide" id="guide-2" x1="10" y1="1559.5" x2="1742" y2="1559.5" stroke="#FF0000"/>
<line class="illustration__guide" id="guide-1" x1="10" y1="1787.5" x2="1742" y2="1787.5" stroke="#FF0000"/>

<defs>
    <linearGradient id="illustration-2_linear" x1="739.663" y1="-274.4" x2="788.887" y2="1778.58" gradientUnits="userSpaceOnUse">
        <stop offset="0.0558454" stop-color="#555555"/>
        <stop offset="0.494792" stop-color="#888888"/>
        <stop offset="1" stop-color="#555555"/>
    </linearGradient>
</defs>
</svg>
