<svg width="3221" height="5309" viewBox="0 0 3221 5309" fill="none" xmlns="http://www.w3.org/2000/svg">
>
    <g>
        <line x1="2413.7" y1="5057" x2="2413.7" y2="5308.9"/>
    </g>
    <g>
        <line x1="2435.7" y1="5099.8" x2="2435.7" y2="5308.9"/>
    </g>
    <g>
        <line x1="2479.7" y1="5168.7" x2="2479.7" y2="5308.9"/>
    </g>
    <g>
        <line x1="2505.7" y1="5199.8" x2="2505.7" y2="5308.9"/>
    </g>
    <g>
        <line x1="2533.7" y1="5227.3" x2="2533.7" y2="5308.9"/>
    </g>
    <g>
        <line x1="2563.7" y1="5251.6" x2="2563.7" y2="5308.9"/>
    </g>
    <g>
        <line x1="2595.7" y1="5272.9" x2="2595.7" y2="5308.9"/>
    </g>
    <g>
        <line x1="2390.7" y1="5008.8" x2="2390.7" y2="5308.9"/>
    </g>
    <g>
        <line x1="2368.7" y1="4963.1" x2="2368.7" y2="5308.9"/>
    </g>
    <g>
        <line x1="2325.7" y1="4885.7" x2="2325.7" y2="5308.9"/>
    </g>
    <g>
        <line x1="2303.7" y1="4853.1" x2="2303.7" y2="5308.9"/>
    </g>
    <g>
        <line x1="2279.7" y1="4822.3" x2="2279.7" y2="5308.9"/>
    </g>
    <g>
        <line x1="2225.7" y1="4766.2" x2="2225.7" y2="5308.9"/>
    </g>
    <g>
        <line x1="2195.7" y1="4740.9" x2="2195.7" y2="5308.9"/>
    </g>
    <g>
        <line x1="2127.7" y1="4694.2" x2="2127.7" y2="5308.9"/>
    </g>
    <g>
        <line x1="2034" y1="4645.8" x2="2034" y2="5308.9"/>
    </g>
    <g>
        <line x1="1975" y1="4621.7" x2="1975" y2="5308.9"/>
    </g>
    <g>
        <line x1="1906" y1="4597.9" x2="1906" y2="5308.9"/>
    </g>
    <g>
        <line x1="1835" y1="4573.6" x2="1835" y2="5308.9"/>
    </g>
    <g>
        <line x1="1759" y1="4545" x2="1759" y2="5308.9"/>
    </g>
    <g>
        <line x1="1599" y1="4477.5" x2="1599" y2="5308.9"/>
    </g>
    <g>
        <polyline points="1545,4431.9 1545,2982.2 1959.5,2982.2 1959.5,1476.5 	"/>
    </g>
    <g>
        <line x1="1501" y1="5308.9" x2="1501" y2="4432.1"/>
    </g>
    <g>
        <polyline points="1405,5308.9 1405,4385.1 1471,4385.1 1507,4385.1 1507,2915.2 1904.5,2915.2 1904.5,1376.6 	"/>
    </g>
    <g>
        <polyline points="846,5308.9 846,4074.2 1211,4074.2 1237,4074.2 1237,2370.5 	"/>
    </g>
    <g>
        <polyline points="719,5308.9 719,3996.4 1156,3996.4 1171,3996.4 1171,3993.1 1171,2265.4 	"/>
    </g>
    <g>
        <polyline points="1321,2517.1 1321,4181.6 1321,4214 1085,4214 1085,5308.9 	"/>
    </g>
    <g>
        <line x1="1295" y1="4149.3" x2="1295" y2="2469.8"/>
    </g>
    <g>
        <polyline points="1267,2420.9 1267,4114.2 1267,4146.7 968,4146.7 968,5308.9 	"/>
    </g>
    <g>
        <line x1="1206" y1="4037" x2="1206" y2="564.5"/>
    </g>
    <g>
        <line x1="1135" y1="3948.8" x2="1135" y2="2211"/>
    </g>
    <g>
        <polyline points="1097,2155.5 1097,3903.7 1097,3913.1 587,3913.1 587,5308.9 	"/>
    </g>
    <g>
        <line x1="1057" y1="3858.2" x2="1057" y2="2098.8"/>
    </g>
    <g>
        <polyline points="1012,2037.2 1012,3809.8 1012,3824.2 450,3824.2 450,5308.9 	"/>
    </g>
    <g>
        <line x1="962" y1="3759.6" x2="962" y2="1970.9"/>
    </g>
    <g>
        <polyline points="907,1900.4 907,3708.3 907,3727.4 305.5,3727.4 305.5,5308.9 	"/>
    </g>
    <g>
        <line x1="847" y1="3656.8" x2="847" y2="1826.1"/>
    </g>
    <g>
        <polyline points="786,307.4 786,3608.3 229,3608.3 	"/>
    </g>
    <g>
        <line x1="712" y1="1667.3" x2="712" y2="3554.1"/>
    </g>
    <g>
        <polyline points="637,238.4 637,3503.2 229,3503.2 	"/>
    </g>
    <g>
        <line x1="557" y1="3452.8" x2="557" y2="1497.2"/>
    </g>
    <g>
        <polyline points="468.5,171.3 468.5,3400.6 229,3400.6 	"/>
    </g>
    <g>
        <line x1="382" y1="3352.7" x2="382" y2="1318.5"/>
    </g>
    <g>
        <polyline points="293,112.1 293,3305.9 229,3305.9 	"/>
    </g>
    <g>
        <polyline points="1347,4213.4 1347,2549.7 1444.5,2549.7 1444.5,771 	"/>
    </g>
    <g>
        <polyline points="1405,4282 1405,2705.3 1405,2683.3 1634.5,2683.3 1634.5,983.2 	"/>
    </g>
    <g>
        <polyline points="1471,4355.9 1471,2850.4 1844.5,2850.4 1844.5,1275.7 	"/>
    </g>
    <g>
        <polyline points="1585,4471.2 1585,3050.9 2009.5,3050.9 2009.5,1573.9 	"/>
    </g>
    <g>
        <line x1="1630" y1="4491.2" x2="1630" y2="3094.3"/>
    </g>
    <g>
        <polyline points="1735,4535.4 1735,3205.9 2099.5,3205.9 2099.5,1765.1 	"/>
    </g>
    <g>
        <polyline points="1795,4558.8 1795,3291.1 2142.5,3291.1 2142.5,1863.2 	"/>
    </g>
    <g>
        <polyline points="1930,4605.7 1930,3465 2225.5,3465 2225.5,2030 	"/>
    </g>
    <g>
        <polyline points="2005,4633.4 2005,3548.2 2265.5,3548.2 2265.5,2152.4 	"/>
    </g>
    <g>
        <polyline points="2085,5308.9 2085,3630.1 2304.5,3630.1 2304.5,2264.7 	"/>
    </g>
    <g>
        <polyline points="2170,5308.9 2170,3698.7 2342.5,3698.7 2342.5,2365.6 	"/>
    </g>
    <g>
        <polyline points="2255.7,5308.9 2255.7,3764.6 2379.5,3764.6 2379.5,2455.4 	"/>
    </g>
    <g>
        <line x1="2455.7" y1="5308.9" x2="2455.7" y2="3912.2"/>
    </g>
    <g>
        <line x1="2549.5" y1="5240.6" x2="2549.5" y2="2780.3"/>
    </g>
    <g>
        <line x1="2639.5" y1="5308.9" x2="2639.5" y2="2911.2"/>
    </g>
    <g>
        <line x1="2730.5" y1="5308.9" x2="2730.5" y2="4093.9"/>
    </g>
    <g>
        <line x1="2610.5" y1="4032.5" x2="2610.5" y2="2871.3"/>
    </g>
    <g>
        <line x1="2665.5" y1="4075.7" x2="2665.5" y2="2937.5"/>
    </g>
    <g>
        <line x1="2580.5" y1="4022.4" x2="2580.5" y2="2827.9"/>
    </g>
    <g>
        <line x1="2517.5" y1="3961.4" x2="2517.5" y2="2728.1"/>
    </g>
    <g>
        <line x1="2484.5" y1="3920.4" x2="2484.5" y2="2670.5"/>
    </g>
    <g>
        <line x1="2450.5" y1="3874.5" x2="2450.5" y2="2606.5"/>
    </g>
    <g>
        <polyline points="2415.5,2535.3 2415.5,3822.9 2347.7,3822.9 2347.7,3826.8 2347.7,5308.9 	"/>
    </g>
    <g>
        <polyline points="2184.5,1957.9 2184.5,3378.1 1860,3378.1 1860,3387 1860,4582.4 	"/>
    </g>
    <g>
        <polyline points="2055.5,1648.9 2055.5,3127.9 1680,3127.9 1680,3162.2 1680,5308.9 	"/>
    </g>
    <g>
        <polyline points="1784.5,1182.6 1784.5,2792.7 1437,2792.7 1437,4333.4 1420,4333.4 1304,4333.4 1304,5308.9 	"/>
    </g>
    <g>
        <polyline points="1714.5,1085 1714.5,2732.5 1437,2732.5 	"/>
    </g>
    <g>
        <polyline points="1545.5,876 1545.5,2610.8 1375,2610.8 1375,2622.1 1375,4246.9 1375,4276.2 1370,4276.2 1197,4276.2
            1197,5308.9 	"/>
    </g>
    <g>
        <line x1="1334.5" y1="2490.7" x2="1334.5" y2="669.7"/>
    </g>
    <g>
        <line x1="1084.5" y1="2137.5" x2="1084.5" y2="479.6"/>
    </g>
    <g>
        <line x1="944.5" y1="1948.2" x2="944.5" y2="392.5"/>
    </g>
    <g>
        <line x1="2619.6" y1="5285.6" x2="2619.6" y2="5308.9"/>
    </g>

    <line class="illustration__guide" id="guide-1" x1="51.769" y1="1663.71" x2="3150.77" y2="5218.71" stroke="#FF0000" stroke-width="10"/>
    <line class="illustration__guide" id="guide-2" x1="51.9031" y1="234.875" x2="3124.9" y2="4072.87" stroke="#FF0000" stroke-width="10"/>
    <line class="illustration__guide" id="guide-3" x1="65.4332" y1="3877.63" x2="3149.53" y2="5595.64" stroke="#FF0000" stroke-width="10"/>


    <defs>
        <linearGradient id="illustration-3_linear" x1="1349.36" y1="-1973.17" x2="1759.83" y2="5294.28" gradientUnits="userSpaceOnUse">
            <stop offset="0.0558454" stop-color="#555555"/>
            <stop offset="0.494792" stop-color="#FFFFFF"/>
            <stop offset="1" stop-color="#555555"/>
        </linearGradient>
    </defs>
</svg>
