<svg width="4298" height="3053" viewBox="0 0 4298 3053" fill="none" xmlns="http://www.w3.org/2000/svg">
<g>
<path d="M2126.4 1542.8V1157.5" />
</g>
<g>
<path d="M2104.4 1548.2V1164.9" />
</g>
<g>
<path d="M2080.4 1554.1V1173.1" />
</g>
<g>
<path d="M2056.4 1560.1V1181.2" />
</g>
<g>
<path d="M2030.4 1566.5V1190.1" />
</g>
<g>
<path d="M2004.4 1572.9V1198.9" />
</g>
<g>
<path d="M1976.4 1579.8V1208.4" />
</g>
<g>
<path d="M1948.4 1586.8V1218.7" />
</g>
<g>
<path d="M1918.4 1594.1V1228.1" />
</g>
<g>
<path d="M1886.4 1602V1239" />
</g>
<g>
<path d="M1854.4 1609.9V1249.9" />
</g>
<g>
<path d="M1820.4 1618.3V1261.4" />
</g>
<g>
<path d="M1786.4 1626.6V1273" />
</g>
<g>
<path d="M1750.4 1635.5V1285.2" />
</g>
<g>
<path d="M1714.4 1644.4V1297.5" />
</g>
<g>
<path d="M1676.4 1653.8V1310.4" />
</g>
<g>
<path d="M1638.4 1663.2V1323.3" />
</g>
<g>
<path d="M1598.4 1673V1336.9" />
</g>
<g>
<path d="M1558.4 1682.9V1350.5" />
</g>
<g>
<path d="M1516.4 1693.2V1364.7" />
</g>
<g>
<path d="M1474.4 1703.6V1379" />
</g>
<g>
<path d="M1430.4 1714.5V1393.9" />
</g>
<g>
<path d="M1386.4 1725.3V1408.5" />
</g>
<g>
<path d="M1340.4 1736.7V1424.5" />
</g>
<g>
<path d="M1244.4 1760.3V1457.1" />
</g>
<g>
<path d="M1194.4 1772.7V1474.1" />
</g>
<g>
<path d="M1142.4 1785.5V1492.1" />
</g>
<g>
<path d="M1090.4 1798.3V1509.5" />
</g>
<g>
<path d="M1036.4 1811.6V1527.8" />
</g>
<g>
<path d="M982.4 1825V1546.2" />
</g>
<g>
<path d="M926.4 1838.8V1565.2" />
</g>
<g>
<path d="M868.4 1853.1V1584.9" />
</g>
<g>
<path d="M810.4 1867.4V1604.6" />
</g>
<g>
<path d="M750.4 1882.2V1625" />
</g>
<g>
<path d="M690.4 1897V1645.4" />
</g>
<g>
<path d="M628.4 1912.3V1666.5" />
</g>
<g>
<path d="M566.4 1927.6V1687.1" />
</g>
<g>
<path d="M504.4 1942.9V1708.6" />
</g>
<g>
<path d="M440.4 1958.6V1730.8" />
</g>
<g>
<path d="M376.4 1974.4V1751.4" />
</g>
<g>
<path d="M310.4 1990.7V1774.5" />
</g>
<g>
<path d="M244.4 2007V1796.9" />
</g>
<g>
<path d="M176.4 2023.8V1820" />
</g>
<g>
<path d="M176.4 2033.3V2023.8" />
</g>
<g>
<path d="M198 2228.7V2027.8" />
</g>
<g>
<path d="M220 2224.5V2022.3" />
</g>
<g>
<path d="M244 2220V2016.2" />
</g>
<g>
<path d="M268 2215.4V2010.2" />
</g>
<g>
<path d="M294 2210.5V2003.7" />
</g>
<g>
<path d="M320 2205.6V1997.1" />
</g>
<g>
<path d="M348 2200.3V1990.1" />
</g>
<g>
<path d="M376 2195V1983.1" />
</g>
<g>
<path d="M406 2189.4V1975.5" />
</g>
<g>
<path d="M438 2183.3V1967.5" />
</g>
<g>
<path d="M470 2177.3V1959.4" />
</g>
<g>
<path d="M504 2170.9V1950.9" />
</g>
<g>
<path d="M538 2164.4V1942.3" />
</g>
<g>
<path d="M2126.4 2174.2V1864.4" />
</g>
<g>
<path d="M2104.4 2177.2V1868.5" />
</g>
<g>
<path d="M2080.4 2180.4V1873.1" />
</g>
<g>
<path d="M2056.4 2183.7V1877.6" />
</g>
<g>
<path d="M2030.4 2187.2V1882.5" />
</g>
<g>
<path d="M2004.4 2190.7V1887.4" />
</g>
<g>
<path d="M1976.4 2194.5V1892.7" />
</g>
<g>
<path d="M1948.4 2198.3V1898" />
</g>
<g>
<path d="M1918.4 2202.3V1903.7" />
</g>
<g>
<path d="M1886.4 2206.6V1909.7" />
</g>
<g>
<path d="M1854.4 2211V1915.8" />
</g>
<g>
<path d="M1820.4 2215.6V1922.2" />
</g>
<g>
<path d="M1786.4 2220.2V1928.6" />
</g>
<g>
<path d="M1750.4 2225V1935.4" />
</g>
<g>
<path d="M1714.4 2229.9V1942.2" />
</g>
<g>
<path d="M1676.4 2235V1949.4" />
</g>
<g>
<path d="M1638.4 2240.2V1956.6" />
</g>
<g>
<path d="M1598.4 2245.6V1964.1" />
</g>
<g>
<path d="M1558.4 2251V1970.2" />
</g>
<g>
<path d="M1516.4 2256.6V1979.6" />
</g>
<g>
<path d="M1474.4 2262.3V1986.6" />
</g>
<g>
<path d="M1430.4 2268.3V1995.9" />
</g>
<g>
<path d="M1386.4 2274.2V2004.2" />
</g>
<g>
<path d="M1340.4 2280.4V2012.9" />
</g>
<g>
<path d="M1244.4 2293.4V2031" />
</g>
<g>
<path d="M1194.4 2300.2V2040.4" />
</g>
<g>
<path d="M1142.4 2307.2V2050.3" />
</g>
<g>
<path d="M1090.4 2314.2V2060.1" />
</g>
<g>
<path d="M1036.4 2321.5V2070.3" />
</g>
<g>
<path d="M982.4 2328.8V2080.5" />
</g>
<g>
<path d="M926.4 2336.4V2091.1" />
</g>
<g>
<path d="M868.4 2344.2V2103.6" />
</g>
<g>
<path d="M810.4 2352.1V2113" />
</g>
<g>
<path d="M750.4 2360.2V2124.4" />
</g>
<g>
<path d="M690.4 2368.3V2135.7" />
</g>
<g>
<path d="M628.4 2376.7V2147.4" />
</g>
<g>
<path d="M566.4 2385V2159.1" />
</g>
<g>
<path d="M504.4 2393.4V2170.8" />
</g>
<g>
<path d="M440.4 2402.1V2182.9" />
</g>
<g>
<path d="M376.4 2410.7V2195" />
</g>
<g>
<path d="M310.4 2419.6V2207.4" />
</g>
<g>
<path d="M244.4 2428.6V2219.9" />
</g>
<g>
<path d="M176.4 2033.3V2646.2L188 2661.2V2918.2" />
</g>
<g>
<path d="M208 2918.2V2660.1L198 2644.7V2434.8" />
</g>
<g>
<path d="M232 2918.2V2658.8L220 2643.2V2431.9" />
</g>
<g>
<path d="M255.5 2918.2V2657.5L244 2641.6V2428.6" />
</g>
<g>
<path d="M281 2918.2V2656.1L268 2639.9V2425.4" />
</g>
<g>
<path d="M308 2918.2V2654.7L294 2638.1V2421.9" />
</g>
<g>
<path d="M334 2918.2V2653.2L320 2636.4V2418.3" />
</g>
<g>
<path d="M363 2918.2V2651.8L348 2634.4V2414.6" />
</g>
<g>
<path d="M390.5 2918.2V2649.9L376 2632.5V2410.8" />
</g>
<g>
<path d="M422.5 2918.2V2648.3L406 2630.5V2406.7" />
</g>
<g>
<path d="M454 2918.2V2646.7L438 2628.3V2402.4" />
</g>
<g>
<path d="M487.5 2918.2V2644.9L470 2626.1V2398.1" />
</g>
<g>
<path d="M522 2918.2V2643L504 2623.7V2393.1" />
</g>
<g>
<path d="M555.5 2918.2V2641.2L538 2621.4V2388.9" />
</g>
<g>
<path d="M592.5 2918.2V2639.2L574 2619V2384" />
</g>
<g>
<path d="M630 2918.2V2636.8L610 2616.5V2379.1" />
</g>
<g>
<path d="M667 2918.2V2634.9L648 2613.9V2373.6" />
</g>
<g>
<path d="M705.5 2918.2V2632.5L686 2611.3V2369.8" />
</g>
<g>
<path d="M747 2918.2V2630.8L726 2608.6V2364.2" />
</g>
<g>
<path d="M786.5 2918.2V2628.6L766 2605.8V2358.1" />
</g>
<g>
<path d="M829.5 2918.2V2626.3L808 2603V2352.4" />
</g>
<g>
<path d="M871.5 2918.2V2623.9L850 2600.1V2346.7" />
</g>
<g>
<path d="M917 2918.2V2621.5L894 2597.1V2340.4" />
</g>
<g>
<path d="M962.5 2918.2V2618.9L938 2594.1V2334.8" />
</g>
<g>
<path d="M1009.5 2918.2V2616.4L984 2591V2328.6" />
</g>
<g>
<path d="M1057 2918.2V2613.7L1032 2587.6V2322.1" />
</g>
<g>
<path d="M1107 2918.2V2611.1L1080 2582.8V2315" />
</g>
<g>
<path d="M1157 2918.2V2608.4L1130 2578.7V2308.9" />
</g>
<g>
<path d="M1209.5 2918.2V2605.5L1182 2577.4V2301.8" />
</g>
<g>
<path d="M1265 2918.2V2602.5L1234 2573.8V2294.8" />
</g>
<g>
<path d="M2149 2511.2V1149.8" />
</g>
<g>
<path d="M574 2157.6V1933.3" />
</g>
<g>
<path d="M610 2150.8V1924.2" />
</g>
<g>
<path d="M648 2143.7V1914.7" />
</g>
<g>
<path d="M686 2136.5V1905.1" />
</g>
<g>
<path d="M726 2128.9V1895" />
</g>
<g>
<path d="M766 2121.4V1885" />
</g>
<g>
<path d="M808 2113.4V1874.4" />
</g>
<g>
<path d="M850 2105.5V1863.9" />
</g>
<g>
<path d="M894 2097.2V1852.8" />
</g>
<g>
<path d="M938 2088.9V1841.7" />
</g>
<g>
<path d="M984 2080.2V1830.2" />
</g>
<g>
<path d="M1032 2071.1V1818.1" />
</g>
<g>
<path d="M1080 2062V1806" />
</g>
<g>
<path d="M1130 2052.6V1793.4" />
</g>
<g>
<path d="M1182 2042.8V1780.4" />
</g>
<g>
<path d="M1234 2033V1767.3" />
</g>
<g>
<path d="M1342 2012.6V1740.1" />
</g>
<g>
<path d="M1398 2002V1726.1" />
</g>
<g>
<path d="M1456 1991V1711.5" />
</g>
<g>
<path d="M1514 1980.1V1696.9" />
</g>
<g>
<path d="M1574 1968.7V1681.8" />
</g>
<g>
<path d="M1634 1957.4V1666.7" />
</g>
<g>
<path d="M1696 1945.7V1651.1" />
</g>
<g>
<path d="M1758 1934V1635.5" />
</g>
<g>
<path d="M1820 1922.3V1619.9" />
</g>
<g>
<path d="M1884 1910.2V1603.8" />
</g>
<g>
<path d="M1948 1898.1V1587.7" />
</g>
<g>
<path d="M2014 1885.6V1571.1" />
</g>
<g>
<path d="M2080 1873.1V1554.5" />
</g>
<g>
<path d="M1319.5 2918.2V2599.6L1293 2569.8V1440.8" />
</g>
<g>
<path d="M1370.2 2916.7V2596.8L1342 2566.4V2280.2" />
</g>
<g>
<path d="M1425.4 2916.7V2594.7L1398 2562.6V2272.6" />
</g>
<g>
<path d="M1485 2916.7V2590.8L1456 2558.6V2264.8" />
</g>
<g>
<path d="M1545 2916.7V2587.3L1514 2554.6V2257" />
</g>
<g>
<path d="M1604 2916.7V2583.8L1574 2550.5V2248.9" />
</g>
<g>
<path d="M1665 2916.7V2580.7L1634 2546.4V2240.7" />
</g>
<g>
<path d="M1728 2916.7V2577L1696 2542.2V2232.4" />
</g>
<g>
<path d="M1789 2916.7V2574L1758 2537.7V2224" />
</g>
<g>
<path d="M1851 2916.7V2570.6L1820 2533.7V2215.6" />
</g>
<g>
<path d="M1916 2916.7V2567L1884 2529.3V2207" />
</g>
<g>
<path d="M1984 2916.7V2563.3L1948 2525.8V2198.3" />
</g>
<g>
<path d="M2050 2916.7V2559.6L2014 2520.4V2189.4" />
</g>
<g>
<path d="M2117 2916.7V2556.1L2080 2515.5V2180.5" />
</g>
<g>
<path d="M2171.6 1542.8V1157.5" />
</g>
<g>
<path d="M2193.6 1548.2V1164.9" />
</g>
<g>
<path d="M2217.6 1554.1V1173.1" />
</g>
<g>
<path d="M2241.6 1560.1V1181.2" />
</g>
<g>
<path d="M2267.6 1566.5V1190.1" />
</g>
<g>
<path d="M2293.6 1572.9V1198.9" />
</g>
<g>
<path d="M2321.6 1579.8V1208.4" />
</g>
<g>
<path d="M2349.6 1586.8V1218.7" />
</g>
<g>
<path d="M2379.6 1594.1V1228.1" />
</g>
<g>
<path d="M2411.6 1602V1239" />
</g>
<g>
<path d="M2443.6 1609.9V1249.9" />
</g>
<g>
<path d="M2477.6 1618.3V1261.4" />
</g>
<g>
<path d="M2511.6 1626.6V1273" />
</g>
<g>
<path d="M2547.6 1635.5V1285.2" />
</g>
<g>
<path d="M2583.6 1644.4V1297.5" />
</g>
<g>
<path d="M2621.6 1653.8V1310.4" />
</g>
<g>
<path d="M2659.6 1663.2V1323.3" />
</g>
<g>
<path d="M2699.6 1673V1336.9" />
</g>
<g>
<path d="M2739.6 1682.9V1350.5" />
</g>
<g>
<path d="M2781.6 1693.2V1364.7" />
</g>
<g>
<path d="M2823.6 1703.6V1379" />
</g>
<g>
<path d="M2867.6 1714.5V1393.9" />
</g>
<g>
<path d="M2911.6 1725.3V1408.5" />
</g>
<g>
<path d="M2957.6 1736.7V1424.5" />
</g>
<g>
<path d="M3053.6 1760.3V1457.1" />
</g>
<g>
<path d="M3103.6 1772.7V1474.1" />
</g>
<g>
<path d="M3155.6 1785.5V1492.1" />
</g>
<g>
<path d="M3207.6 1798.3V1509.5" />
</g>
<g>
<path d="M3261.6 1811.6V1527.8" />
</g>
<g>
<path d="M3315.6 1825V1546.2" />
</g>
<g>
<path d="M3371.6 1838.8V1565.2" />
</g>
<g>
<path d="M3429.6 1853.1V1584.9" />
</g>
<g>
<path d="M3487.6 1867.4V1604.6" />
</g>
<g>
<path d="M3547.6 1882.2V1625" />
</g>
<g>
<path d="M3607.6 1897V1645.4" />
</g>
<g>
<path d="M3669.6 1912.3V1666.5" />
</g>
<g>
<path d="M3731.6 1927.6V1687.1" />
</g>
<g>
<path d="M3793.6 1942.9V1708.6" />
</g>
<g>
<path d="M3857.6 1958.6V1730.8" />
</g>
<g>
<path d="M3921.6 1974.4V1751.4" />
</g>
<g>
<path d="M3987.6 1990.7V1774.5" />
</g>
<g>
<path d="M4053.6 2007V1796.9" />
</g>
<g>
<path d="M4121.6 2023.8V1820" />
</g>
<g>
<path d="M4121.6 2033.3V2023.8" />
</g>
<g>
<path d="M4100 2228.7V2027.8" />
</g>
<g>
<path d="M4078 2224.5V2022.3" />
</g>
<g>
<path d="M4054 2220V2016.2" />
</g>
<g>
<path d="M4030 2215.4V2010.2" />
</g>
<g>
<path d="M4004 2210.5V2003.7" />
</g>
<g>
<path d="M3978 2205.6V1997.1" />
</g>
<g>
<path d="M3950 2200.3V1990.1" />
</g>
<g>
<path d="M3922 2195V1983.1" />
</g>
<g>
<path d="M3892 2189.4V1975.5" />
</g>
<g>
<path d="M3860 2183.3V1967.5" />
</g>
<g>
<path d="M3828 2177.3V1959.4" />
</g>
<g>
<path d="M3794 2170.9V1950.9" />
</g>
<g>
<path d="M3760 2164.4V1942.3" />
</g>
<g>
<path d="M3724 2157.6V1933.3" />
</g>
<g>
<path d="M3688 2150.8V1924.2" />
</g>
<g>
<path d="M3650 2143.7V1914.7" />
</g>
<g>
<path d="M3612 2136.5V1905.1" />
</g>
<g>
<path d="M3572 2128.9V1895" />
</g>
<g>
<path d="M3532 2121.4V1885" />
</g>
<g>
<path d="M3490 2113.4V1874.4" />
</g>
<g>
<path d="M3448 2105.5V1863.9" />
</g>
<g>
<path d="M3404 2097.2V1852.8" />
</g>
<g>
<path d="M3360 2088.9V1841.7" />
</g>
<g>
<path d="M3314 2080.2V1830.2" />
</g>
<g>
<path d="M3266 2071.1V1818.1" />
</g>
<g>
<path d="M3218 2062V1806" />
</g>
<g>
<path d="M3168 2052.6V1793.4" />
</g>
<g>
<path d="M3116 2042.8V1780.4" />
</g>
<g>
<path d="M3064 2033V1767.3" />
</g>
<g>
<path d="M2956 2012.6V1740.1" />
</g>
<g>
<path d="M2900 2002V1726.1" />
</g>
<g>
<path d="M2842 1991V1711.5" />
</g>
<g>
<path d="M2784 1980.1V1696.9" />
</g>
<g>
<path d="M2724 1968.7V1681.8" />
</g>
<g>
<path d="M2664 1957.4V1666.7" />
</g>
<g>
<path d="M2602 1945.7V1651.1" />
</g>
<g>
<path d="M2540 1934V1635.5" />
</g>
<g>
<path d="M2478 1922.3V1619.9" />
</g>
<g>
<path d="M2414 1910.2V1603.8" />
</g>
<g>
<path d="M2350 1898.1V1587.7" />
</g>
<g>
<path d="M2284 1885.6V1571.1" />
</g>
<g>
<path d="M2218 1873.1V1554.5" />
</g>
<g>
<path d="M2171.6 2174.2V1864.4" />
</g>
<g>
<path d="M2193.6 2177.2V1868.5" />
</g>
<g>
<path d="M2217.6 2180.4V1873.1" />
</g>
<g>
<path d="M2241.6 2183.7V1877.6" />
</g>
<g>
<path d="M2267.6 2187.2V1882.5" />
</g>
<g>
<path d="M2293.6 2190.7V1887.4" />
</g>
<g>
<path d="M2321.6 2194.5V1892.7" />
</g>
<g>
<path d="M2349.6 2198.3V1898" />
</g>
<g>
<path d="M2379.6 2202.3V1903.7" />
</g>
<g>
<path d="M2411.6 2206.6V1909.7" />
</g>
<g>
<path d="M2443.6 2211V1915.8" />
</g>
<g>
<path d="M2477.6 2215.6V1922.2" />
</g>
<g>
<path d="M2511.6 2220.2V1928.6" />
</g>
<g>
<path d="M2547.6 2225V1935.4" />
</g>
<g>
<path d="M2583.6 2229.9V1942.2" />
</g>
<g>
<path d="M2621.6 2235V1949.4" />
</g>
<g>
<path d="M2659.6 2240.2V1956.6" />
</g>
<g>
<path d="M2699.6 2245.6V1964.1" />
</g>
<g>
<path d="M2739.6 2251V1970.2" />
</g>
<g>
<path d="M2781.6 2256.6V1979.6" />
</g>
<g>
<path d="M2823.6 2262.3V1986.6" />
</g>
<g>
<path d="M2867.6 2268.3V1995.9" />
</g>
<g>
<path d="M2911.6 2274.2V2004.2" />
</g>
<g>
<path d="M2957.6 2280.4V2012.9" />
</g>
<g>
<path d="M3053.6 2293.4V2031" />
</g>
<g>
<path d="M3103.6 2300.2V2040.4" />
</g>
<g>
<path d="M3155.6 2307.2V2050.3" />
</g>
<g>
<path d="M3207.6 2314.2V2060.1" />
</g>
<g>
<path d="M3261.6 2321.5V2070.3" />
</g>
<g>
<path d="M3315.6 2328.8V2080.5" />
</g>
<g>
<path d="M3371.6 2336.4V2091.1" />
</g>
<g>
<path d="M3429.6 2344.2V2103.6" />
</g>
<g>
<path d="M3487.6 2352.1V2113" />
</g>
<g>
<path d="M3547.6 2360.2V2124.4" />
</g>
<g>
<path d="M3607.6 2368.3V2135.7" />
</g>
<g>
<path d="M3669.6 2376.7V2147.4" />
</g>
<g>
<path d="M3731.6 2385V2159.1" />
</g>
<g>
<path d="M3793.6 2393.4V2170.8" />
</g>
<g>
<path d="M3857.6 2402.1V2182.9" />
</g>
<g>
<path d="M3921.6 2410.7V2195" />
</g>
<g>
<path d="M3987.6 2419.6V2207.4" />
</g>
<g>
<path d="M4053.6 2428.6V2219.9" />
</g>
<g>
<path d="M4121.6 2033.3V2646.2L4110 2661.2V2918.2" />
</g>
<g>
<path d="M4090 2918.2V2660.1L4100 2644.7V2434.8" />
</g>
<g>
<path d="M4066 2918.2V2658.8L4078 2643.2V2431.9" />
</g>
<g>
<path d="M4042.5 2918.2V2657.5L4054 2641.6V2428.6" />
</g>
<g>
<path d="M4017 2918.2V2656.1L4030 2639.9V2425.4" />
</g>
<g>
<path d="M3990 2918.2V2654.7L4004 2638.1V2421.9" />
</g>
<g>
<path d="M3964 2918.2V2653.2L3978 2636.4V2418.3" />
</g>
<g>
<path d="M3935 2918.2V2651.8L3950 2634.4V2414.6" />
</g>
<g>
<path d="M3907.5 2918.2V2649.9L3922 2632.5V2410.8" />
</g>
<g>
<path d="M3875.5 2918.2V2648.3L3892 2630.5V2406.7" />
</g>
<g>
<path d="M3844 2918.2V2646.7L3860 2628.3V2402.4" />
</g>
<g>
<path d="M3810.5 2918.2V2644.9L3828 2626.1V2398.1" />
</g>
<g>
<path d="M3776 2918.2V2643L3794 2623.7V2393.1" />
</g>
<g>
<path d="M3742.5 2918.2V2641.2L3760 2621.4V2388.9" />
</g>
<g>
<path d="M3705.5 2918.2V2639.2L3724 2619V2384" />
</g>
<g>
<path d="M3668 2918.2V2636.8L3688 2616.5V2379.1" />
</g>
<g>
<path d="M3631 2918.2V2634.9L3650 2613.9V2373.6" />
</g>
<g>
<path d="M3592.5 2918.2V2632.5L3612 2611.3V2369.8" />
</g>
<g>
<path d="M3551 2918.2V2630.8L3572 2608.6V2364.2" />
</g>
<g>
<path d="M3511.5 2918.2V2628.6L3532 2605.8V2358.1" />
</g>
<g>
<path d="M3468.5 2918.2V2626.3L3490 2603V2352.4" />
</g>
<g>
<path d="M3426.5 2918.2V2623.9L3448 2600.1V2346.7" />
</g>
<g>
<path d="M3381 2918.2V2621.5L3404 2597.1V2340.4" />
</g>
<g>
<path d="M3335.5 2918.2V2618.9L3360 2594.1V2334.8" />
</g>
<g>
<path d="M3288.5 2918.2V2616.4L3314 2591V2328.6" />
</g>
<g>
<path d="M3241 2918.2V2613.7L3266 2587.6V2322.1" />
</g>
<g>
<path d="M3191 2918.2V2611.1L3218 2582.8V2315" />
</g>
<g>
<path d="M3141 2918.2V2608.4L3168 2578.7V2308.9" />
</g>
<g>
<path d="M3088.5 2918.2V2605.5L3116 2577.4V2301.8" />
</g>
<g>
<path d="M3033 2918.2V2602.5L3064 2573.8V2294.8" />
</g>
<g>
<path d="M2978.5 2918.2V2599.6L3005 2569.8V1440.8" />
</g>
<g>
<path d="M2927.8 2916.7V2596.8L2956 2566.4V2280.2" />
</g>
<g>
<path d="M2872.6 2916.7V2594.7L2900 2562.6V2272.6" />
</g>
<g>
<path d="M2813 2916.7V2590.8L2842 2558.6V2264.8" />
</g>
<g>
<path d="M2753 2916.7V2587.3L2784 2554.6V2257" />
</g>
<g>
<path d="M2694 2916.7V2583.8L2724 2550.5V2248.9" />
</g>
<g>
<path d="M2633 2916.7V2580.7L2664 2546.4V2240.7" />
</g>
<g>
<path d="M2570 2916.7V2577L2602 2542.2V2232.4" />
</g>
<g>
<path d="M2509 2916.7V2574L2540 2537.7V2224" />
</g>
<g>
<path d="M2447 2916.7V2570.6L2478 2533.7V2215.6" />
</g>
<g>
<path d="M2382 2916.7V2567L2414 2529.3V2207" />
</g>
<g>
<path d="M2314 2916.7V2563.3L2350 2525.8V2198.3" />
</g>
<g>
<path d="M2248 2916.7V2559.6L2284 2520.4V2189.4" />
</g>
<g>
<path d="M2181 2916.7V2556.1L2218 2515.5V2180.5" />
</g>
<g>
<path d="M2149 837.8V1107.8" />
</g>
<g>
<path d="M574 1659.9V1474.5" />
</g>
<g>
<path d="M610 1646.4V1460.9" />
</g>
<g>
<path d="M648 1633.1V1445.5" />
</g>
<g>
<path d="M686 1619.8V1430.1" />
</g>
<g>
<path d="M726 1605.8V1412.4" />
</g>
<g>
<path d="M766 1591.8V1397.7" />
</g>
<g>
<path d="M808 1577.1V1380.7" />
</g>
<g>
<path d="M850 1562.4V1363.7" />
</g>
<g>
<path d="M894 1547V1345.9" />
</g>
<g>
<path d="M938 1531.6V1328.1" />
</g>
<g>
<path d="M984 1515.5V1309.5" />
</g>
<g>
<path d="M1032 1498.7V1290" />
</g>
<g>
<path d="M1080 1481.9V1270.6" />
</g>
<g>
<path d="M1130 1464.4V1250.3" />
</g>
<g>
<path d="M1182 1445.5V1229.3" />
</g>
<g>
<path d="M1234 1428V1208.2" />
</g>
<g>
<path d="M1342 1388.7V1164.5" />
</g>
<g>
<path d="M1398 1370.6V1141.8" />
</g>
<g>
<path d="M1456 1350.3V1118.3" />
</g>
<g>
<path d="M1514 1330V1094.8" />
</g>
<g>
<path d="M1574 1309.5V1070.5" />
</g>
<g>
<path d="M1634 1287.9V1049" />
</g>
<g>
<path d="M1696 1266.2V1021.1" />
</g>
<g>
<path d="M1758 1244.5V996" />
</g>
<g>
<path d="M1820 1222.8V969.9" />
</g>
<g>
<path d="M1884 1200.4V945" />
</g>
<g>
<path d="M1948 1178V919" />
</g>
<g>
<path d="M2014 1154.9V892.3" />
</g>
<g>
<path d="M2080 1131.8V865.6" />
</g>
<g>
<path d="M1293 1407.3V1184.3" />
</g>
<g>
<path d="M810.4 1343V1157.2" />
</g>
<g>
<path d="M868.4 1129.9V1319.3" />
</g>
<g>
<path d="M926.4 1102.5V1295.6" />
</g>
<g>
<path d="M982.4 1076.1V1272.7" />
</g>
<g>
<path d="M1036.4 1049V1250.7" />
</g>
<g>
<path d="M1090.4 1025.2V1228.6" />
</g>
<g>
<path d="M1142.4 1000.7V1207.4" />
</g>
<g>
<path d="M1194.4 976.2V1186.2" />
</g>
<g>
<path d="M1244.4 952.7V1165.7" />
</g>
<g>
<path d="M1293 929.7V1149.8" />
</g>
<g>
<path d="M1340.4 907.4V1126.9" />
</g>
<g>
<path d="M1386.4 885.7V1107.8" />
</g>
<g>
<path d="M1430.4 865V1089.8" />
</g>
<g>
<path d="M1474.4 844.3V1076.1" />
</g>
<g>
<path d="M1516.4 1054.7V824.5" />
</g>
<g>
<path d="M1558.4 804.7V1037.5" />
</g>
<g>
<path d="M1598.4 1021.2V785.8" />
</g>
<g>
<path d="M1638.4 767V1004.9" />
</g>
<g>
<path d="M1676.4 989.3V749.1" />
</g>
<g>
<path d="M1714.4 731.1V973.8" />
</g>
<g>
<path d="M1750.4 959.1V714.2" />
</g>
<g>
<path d="M1786.4 697.2V944.4" />
</g>
<g>
<path d="M1820.4 930.5V681.2" />
</g>
<g>
<path d="M1854.4 665.2V916.6" />
</g>
<g>
<path d="M1886.4 903.6V650.1" />
</g>
<g>
<path d="M1918.4 635V890.5" />
</g>
<g>
<path d="M1948.4 878.3V620.9" />
</g>
<g>
<path d="M1976.4 607.7V866.8" />
</g>
<g>
<path d="M2004.4 594.5V855.4" />
</g>
<g>
<path d="M2030.4 844.8V582.2" />
</g>
<g>
<path d="M2056.4 570V834.2" />
</g>
<g>
<path d="M2080.4 824.4V558.6" />
</g>
<g>
<path d="M2104.4 547.3V814.6" />
</g>
<g>
<path d="M2125.7 805.9V537.3" />
</g>
<g>
<path d="M2149 217.5V487.5" />
</g>
<g>
<path d="M984 1041.4V856.2" />
</g>
<g>
<path d="M1032 1018.5V829.9" />
</g>
<g>
<path d="M1080 995.7V803.5" />
</g>
<g>
<path d="M1130 971.8V777.4" />
</g>
<g>
<path d="M1182 947.2V747.6" />
</g>
<g>
<path d="M1234 922.5V719.1" />
</g>
<g>
<path d="M1342 871.1V659.9" />
</g>
<g>
<path d="M1398 844.5V629.1" />
</g>
<g>
<path d="M1456 816.9V597.3" />
</g>
<g>
<path d="M1514 789.3V566.2" />
</g>
<g>
<path d="M1574 760.8V532.6" />
</g>
<g>
<path d="M1634 732.2V499.7" />
</g>
<g>
<path d="M1696 702.7V465.7" />
</g>
<g>
<path d="M1758 673.3V431.7" />
</g>
<g>
<path d="M1820 643.8V397.7" />
</g>
<g>
<path d="M1884 613.3V362.6" />
</g>
<g>
<path d="M1948 582.9V327.5" />
</g>
<g>
<path d="M2014 551.5V291.3" />
</g>
<g>
<path d="M2080 520.1V255.1" />
</g>
<g>
<path d="M1293 894.4V686.7" />
</g>
<g>
<path d="M2148.7 526.5V796.5" />
</g>
<g>
<path d="M3723.6 1659.9V1474.5" />
</g>
<g>
<path d="M3687.6 1646.4V1460.9" />
</g>
<g>
<path d="M3649.6 1633.1V1445.5" />
</g>
<g>
<path d="M3611.6 1619.8V1430.1" />
</g>
<g>
<path d="M3571.6 1605.8V1412.4" />
</g>
<g>
<path d="M3531.6 1591.8V1397.7" />
</g>
<g>
<path d="M3489.6 1577.1V1380.7" />
</g>
<g>
<path d="M3447.6 1562.4V1363.7" />
</g>
<g>
<path d="M3403.6 1547V1345.9" />
</g>
<g>
<path d="M3359.6 1531.6V1328.1" />
</g>
<g>
<path d="M3313.6 1515.5V1309.5" />
</g>
<g>
<path d="M3265.6 1498.7V1290" />
</g>
<g>
<path d="M3217.6 1481.9V1270.6" />
</g>
<g>
<path d="M3167.6 1464.4V1250.3" />
</g>
<g>
<path d="M3115.6 1445.5V1229.3" />
</g>
<g>
<path d="M3063.6 1428V1208.2" />
</g>
<g>
<path d="M2955.6 1388.7V1164.5" />
</g>
<g>
<path d="M2899.6 1370.6V1141.8" />
</g>
<g>
<path d="M2841.6 1350.3V1118.3" />
</g>
<g>
<path d="M2783.6 1330V1094.8" />
</g>
<g>
<path d="M2723.6 1309.5V1070.5" />
</g>
<g>
<path d="M2663.6 1287.9V1049" />
</g>
<g>
<path d="M2601.6 1266.2V1021.1" />
</g>
<g>
<path d="M2539.6 1244.5V996" />
</g>
<g>
<path d="M2477.6 1222.8V969.9" />
</g>
<g>
<path d="M2413.6 1200.4V945" />
</g>
<g>
<path d="M2349.6 1178V919" />
</g>
<g>
<path d="M2283.6 1154.9V892.3" />
</g>
<g>
<path d="M2217.6 1131.8V865.6" />
</g>
<g>
<path d="M3004.6 1407.3V1184.3" />
</g>
<g>
<path d="M3487.2 1343V1157.2" />
</g>
<g>
<path d="M3429.2 1129.9V1319.3" />
</g>
<g>
<path d="M3371.2 1102.5V1295.6" />
</g>
<g>
<path d="M3315.2 1076.1V1272.7" />
</g>
<g>
<path d="M3261.2 1049V1250.7" />
</g>
<g>
<path d="M3207.2 1025.2V1228.6" />
</g>
<g>
<path d="M3155.2 1000.7V1207.4" />
</g>
<g>
<path d="M3103.2 976.2V1186.2" />
</g>
<g>
<path d="M3053.2 952.7V1165.7" />
</g>
<g>
<path d="M3004.6 929.7V1149.8" />
</g>
<g>
<path d="M2957.2 907.4V1126.9" />
</g>
<g>
<path d="M2911.2 885.7V1107.8" />
</g>
<g>
<path d="M2867.2 865V1089.8" />
</g>
<g>
<path d="M2823.2 844.3V1076.1" />
</g>
<g>
<path d="M2781.2 1054.7V824.5" />
</g>
<g>
<path d="M2739.2 804.7V1037.5" />
</g>
<g>
<path d="M2699.2 1021.2V785.8" />
</g>
<g>
<path d="M2659.2 767V1004.9" />
</g>
<g>
<path d="M2621.2 989.3V749.1" />
</g>
<g>
<path d="M2583.2 731.1V973.8" />
</g>
<g>
<path d="M2547.2 959.1V714.2" />
</g>
<g>
<path d="M2511.2 697.2V944.4" />
</g>
<g>
<path d="M2477.2 930.5V681.2" />
</g>
<g>
<path d="M2443.2 665.2V916.6" />
</g>
<g>
<path d="M2411.2 903.6V650.1" />
</g>
<g>
<path d="M2379.2 635V890.5" />
</g>
<g>
<path d="M2349.2 878.3V620.9" />
</g>
<g>
<path d="M2321.2 607.7V866.8" />
</g>
<g>
<path d="M2293.2 594.5V855.4" />
</g>
<g>
<path d="M2267.2 844.8V582.2" />
</g>
<g>
<path d="M2241.2 570V834.2" />
</g>
<g>
<path d="M2217.2 824.4V558.6" />
</g>
<g>
<path d="M2193.2 547.3V814.6" />
</g>
<g>
<path d="M2171.9 805.9V537.3" />
</g>
<g>
<path d="M3313.6 1041.4V856.2" />
</g>
<g>
<path d="M3265.6 1018.5V829.9" />
</g>
<g>
<path d="M3217.6 995.7V803.5" />
</g>
<g>
<path d="M3167.6 971.8V777.4" />
</g>
<g>
<path d="M3115.6 947.2V747.6" />
</g>
<g>
<path d="M3063.6 922.5V719.1" />
</g>
<g>
<path d="M2955.6 871.1V659.9" />
</g>
<g>
<path d="M2899.6 844.5V629.1" />
</g>
<g>
<path d="M2841.6 816.9V597.3" />
</g>
<g>
<path d="M2783.6 789.3V566.2" />
</g>
<g>
<path d="M2723.6 760.8V532.6" />
</g>
<g>
<path d="M2663.6 732.2V499.7" />
</g>
<g>
<path d="M2601.6 702.7V465.7" />
</g>
<g>
<path d="M2539.6 673.3V431.7" />
</g>
<g>
<path d="M2477.6 643.8V397.7" />
</g>
<g>
<path d="M2413.6 613.3V362.6" />
</g>
<g>
<path d="M2349.6 582.9V327.5" />
</g>
<g>
<path d="M2283.6 551.5V291.3" />
</g>
<g>
<path d="M2217.6 520.1V255.1" />
</g>
<g>
<path d="M3004.6 894.4V686.7" />
</g>

<line class="illustration__guide" id="guide-12" x1="52" y1="2799.5" x2="4244" y2="2799.5" stroke="#FF0000" stroke-width="3"/>
<line class="illustration__guide" id="guide-11" x1="52" y1="2474.5" x2="4244" y2="2474.5" stroke="#FF0000" stroke-width="3"/>
<line class="illustration__guide" id="guide-10" x1="52" y1="2266.5" x2="4244" y2="2266.5" stroke="#FF0000" stroke-width="3"/>
<line class="illustration__guide" id="guide-9" x1="52" y1="2067.5" x2="4244" y2="2067.5" stroke="#FF0000" stroke-width="3"/>
<line class="illustration__guide" id="guide-8" x1="52" y1="1828.5" x2="4244" y2="1828.5" stroke="#FF0000" stroke-width="3"/>
<line class="illustration__guide" id="guide-7" x1="52" y1="1579.5" x2="4244" y2="1579.5" stroke="#FF0000" stroke-width="3"/>
<line class="illustration__guide" id="guide-6" x1="52" y1="1407.5" x2="4244" y2="1407.5" stroke="#FF0000" stroke-width="3"/>
<line class="illustration__guide" id="guide-5" x1="52" y1="1223.5" x2="4244" y2="1223.5" stroke="#FF0000" stroke-width="3"/>
<line class="illustration__guide" id="guide-4" x1="52" y1="1036.5" x2="4244" y2="1036.5" stroke="#FF0000" stroke-width="3"/>
<line class="illustration__guide" id="guide-3" x1="52" y1="867.5" x2="4244" y2="867.5" stroke="#FF0000" stroke-width="3"/>
<line class="illustration__guide" id="guide-2" x1="52" y1="633.5" x2="4244" y2="633.5" stroke="#FF0000" stroke-width="3"/>
<line class="illustration__guide" id="guide-1" x1="52" y1="453.5" x2="4244" y2="453.5" stroke="#FF0000" stroke-width="3"/>

<defs>
    <linearGradient id="illustration-5_linear" x1="1247.42" y1="707.09" x2="4514.12" y2="2513.2" gradientUnits="userSpaceOnUse">
        <stop stop-color="white"/>
        <stop offset="0.494792" stop-color="#888888"/>
        <stop offset="1" stop-color="white"/>
    </linearGradient>
</defs>
</svg>
