<svg version="1.1" id="Слой_4" xmlns="http://www.w3.org/2000/svg" xmlns:xlink="http://www.w3.org/1999/xlink" x="0px" y="0px"
	 viewBox="0 0 918.1 1210.2" style="enable-background:new 0 0 918.1 1210.2;" xml:space="preserve"
>
    <g><polyline points="108.3,675 301.8,443.9 421.2,470.3 "/></g>
    <g><polyline points="108.3,695 301.8,463.9 421.2,490.3 "/></g>
    <g><polyline points="108.3,707 301.8,475.9 421.2,502.3 "/></g>
    <g><polyline points="108.3,719 301.8,487.9 421.2,514.3 "/></g>
    <g><polyline points="108.3,731 301.8,499.9 421.2,526.3 "/></g>
    <g><polyline points="108.3,745 301.8,513.9 421.2,540.3 471.2,491.4 753,563.9 "/></g>
    <g><polyline points="108.3,761 301.8,529.9 421.2,556.3 "/></g>
    <g><polyline points="108.3,777 301.8,545.9 421.2,572.3 "/></g>
    <g><polyline points="108.3,795 301.8,563.9 421.2,590.3 "/></g>
    <g><polyline points="108.3,813 301.8,581.9 421.2,608.3 "/></g>
    <g><polyline points="108.3,833 301.8,601.9 421.2,628.3 "/></g>
    <g><polyline points="108.3,853 301.8,621.9 421.2,648.3 511.2,560.1 846.3,646.4 "/></g>
    <g><polyline points="108.3,875 301.8,643.9 421.2,670.3 "/></g>
    <g><polyline points="108.3,897 301.8,665.9 421.2,692.3 "/></g>
    <g><polyline points="421.2,635.3 511.2,547.1 846.3,633.4 "/></g>
    <g><polyline points="421.2,665.3 511.2,577.1 846.3,663.4 "/></g>
    <g><polyline points="421.2,683.3 511.2,595.1 846.3,681.4 "/></g>
    <g><polyline points="421.2,701.3 511.2,613.1 846.3,699.4 "/></g>
    <g><polyline points="421.2,722.3 511.2,634.1 846.3,720.4 "/></g>
    <g><polyline points="421.2,743.3 511.2,655.1 846.3,741.4 "/></g>
    <g><polyline points="421.2,767.3 511.2,679.1 846.3,765.4 "/></g>
    <g><polyline points="846.3,816.4 511.2,730.1 421.2,818.3 "/></g>
    <g><polyline points="846.3,843.4 511.2,757.1 421.2,845.3 "/></g>
    <g><polyline points="846.3,873.4 511.2,787.1 421.2,875.3 "/></g>
    <g><polyline points="846.3,907.4 511.2,821.1 421.2,909.3 "/></g>
    <g><polyline points="846.3,943.4 511.2,857.1 421.2,945.3 "/></g>
    <g><polyline points="846.3,1021.4 511.2,935.1 421.2,1023.3 "/></g>
    <g><polyline points="846.3,1063.4 511.2,977.1 421.2,1065.3 "/></g>
    <g><polyline points="470.1,1107.4 511.2,1067.1 667.7,1107.4 "/></g>
    <g><polyline points="39.3,1002.4 301.8,688.9 421.2,715.3 "/></g>
    <g><polyline points="39.3,1042.4 301.8,728.9 421.2,755.3 "/></g>
    <g><polyline points="39.3,1080.4 301.8,766.9 421.2,793.3 511.2,705.1 846.3,791.4 "/></g>
    <g><polyline points="421.2,829.3 301.8,802.9 46.8,1107.4 "/></g>
    <g><polyline points="421.2,863.3 301.8,836.9 75.3,1107.4 "/></g>
    <g><polyline points="421.2,895.3 301.8,868.9 102.1,1107.4 "/></g>
    <g><polyline points="421.2,925.3 301.8,898.9 127.2,1107.4 "/></g>
    <g><polyline points="150.7,1107.4 301.8,926.9 421.2,953.3 "/></g>
    <g><polyline points="174.1,1107.4 301.8,954.9 421.2,981.3 511.2,893.1 846.3,979.4 "/></g>
    <g><polyline points="421.2,1007.3 301.8,980.9 195.9,1107.4 "/></g>
    <g><polyline points="216,1107.4 301.8,1004.9 421.2,1031.3 "/></g>
    <g><polyline points="421.2,1055.3 301.8,1028.9 236.1,1107.4 "/></g>
    <g><polyline points="254.5,1112.6 301.8,1056.1 421.2,1082.6 "/></g>
    <g><polyline points="272.9,1117.4 301.8,1082.9 421.2,1109.3 511.2,1021.1 846.3,1107.4 "/></g>
    <g><polyline points="203.9,324.1 421.2,64.6 714.8,140.2 "/></g>
    <g><polyline points="203.9,330.1 421.2,70.6 714.8,146.2 "/></g>
    <g><polyline points="203.9,337.1 421.2,77.6 714.8,153.2 "/></g>
    <g><polyline points="203.9,344.1 421.2,84.6 714.8,160.2 "/></g>
    <g><polyline points="203.9,352.1 421.2,92.6 714.8,168.2 "/></g>
    <g><polyline points="203.9,360.1 421.2,100.6 714.8,176.2 "/></g>
    <g><polyline points="203.9,369.1 421.2,109.6 714.8,185.2 "/></g>
    <g><polyline points="203.9,378.1 421.2,118.6 714.8,194.2 "/></g>
    <g><polyline points="203.9,387.1 421.2,127.6 714.8,203.2 "/></g>
    <g><polyline points="203.9,396.1 421.2,136.6 714.8,212.2 "/></g>
    <g><polyline points="203.9,406.1 421.2,146.6 714.8,222.2 "/></g>
    <g>
        <polyline points="203.9,416.1 421.2,156.6 714.8,232.2 "/>
        <polyline points="377.6,219.7 421.2,167.6 471.1,180.4 "/>
        <polyline points="385.4,221.4 421.2,178.6 462.1,189.1 "/>
        <polyline points="393.9,223.2 421.2,190.6 452.4,198.6 "/>
        <polyline points="402.4,225.1 421.2,202.6 442.7,208.1 "/>
        <polyline points="369.8,218 421.2,229.2 471.2,180.2 753,252.8 "/>
    </g>
    <g><polyline points="203.9,428.1 371.2,228.3 421.2,239.2 471.2,190.2 753,262.8 "/></g>
    <g><polyline points="203.9,438.1 371.2,238.3 421.2,249.2 471.2,200.2 753,272.8 "/></g>
    <g><polyline points="203.9,451.1 371.2,251.3 421.2,262.2 471.2,213.2 753,285.8 "/></g>
    <g><polyline points="203.9,464.1 371.2,264.3 421.2,275.2 471.2,226.2 753,298.8 "/></g>
    <g><polyline points="203.9,480.1 371.2,280.3 421.2,291.2 471.2,242.2 753,314.8 "/></g>
    <g><polyline points="203.9,496.1 371.2,296.3 421.2,307.2 471.2,258.2 753,330.8 "/></g>
    <g><polyline points="203.9,515.1 371.2,315.3 421.2,326.2 471.2,277.2 753,349.8 "/></g>
    <g><polyline points="203.9,534.1 371.2,334.3 421.2,345.2 471.2,296.2 753,368.8 "/></g>
    <g><polyline points="203.9,553.1 371.2,353.3 421.2,364.2 471.2,315.2 753,387.8 "/></g>
    <g><polyline points="311.2,446 371.2,374.3 421.2,385.2 471.2,336.2 753,408.8 "/></g>
    <g><polyline points="326,449.3 371.2,395.3 421.2,406.2 471.2,357.2 753,429.8 "/></g>
    <g><polyline points="343,453 371.2,419.3 421.2,430.2 471.2,381.2 753,453.8 "/></g>
    <g><polyline points="359.9,456.8 371.2,443.3 421.2,454.2 471.2,405.2 753,477.8 "/></g>
    <g><polyline points="753,503.9 471.2,431.3 421.2,480.3 301.8,453.9 108.3,685 "/></g>
    <g><polyline points="421.2,509.2 471.2,460.2 753,532.8 "/></g>
    <g>
        <polyline points="421.2,568.2 471.2,519.2 753,591.8 "/>
        <polyline points="421.2,601.2 471.2,552.2 498.7,559.3 "/>
    </g>

    <line class="illustration__guide" id="guide-1" x1="411" y1="1" x2="411" y2="1189" stroke="#FF0000" stroke-width="3"/>
    <line class="illustration__guide" id="guide-2" x1="431" y1="1" x2="431" y2="1189" stroke="#FF0000" stroke-width="3"/>
    <line class="illustration__guide" id="guide-3" x1="477" y1="1" x2="477" y2="1189" stroke="#FF0000" stroke-width="3"/>

    <defs>
        <linearGradient id="illustration-7_linear" x1="387.2" y1="55.5" x2="418.107" y2="1138.12" gradientUnits="userSpaceOnUse">
            <stop offset="0.0558454" stop-color="#555555"/>
            <stop offset="0.494792" stop-color="#888888"/>
            <stop offset="1" stop-color="#555555"/>
        </linearGradient>
    </defs>
</svg>




