<svg width="2177" height="3857" viewBox="0 0 2177 3857" fill="none" xmlns="http://www.w3.org/2000/svg">
    <g>
        <path d="M324.7 2034.3L171.9 2160.5L171.8 2905.7"/>
    </g>
    <g>
        <path d="M479.8 1580.9L324.3 1709.3L324.7 2056.3L184.8 2171.8L184.6 2917"/>
    </g>
    <g>
        <path d="M902.9 1073.4L764.4 1187.5L763.6 1388.6L620.6 1506.7L620.5 1730.7L479.8 1846.9V2155.2"/>
    </g>
    <g>
        <path d="M1020 159L987.9 177L897.8 1131.5L795.3 1216.1L795.2 1416.4L652.2 1534.5V1758.5L512 1874.3V2125.8"/>
    </g>
    <g>
    <g>
        <path d="M563.7 2086.4V1919.6L703.8 1803.9L703.9 1579.9L846.9 1461.8V1261.4L951.2 1175.5L1006.6 188.2L1041.1 166.9"/>
        <path d="M1159.8 1003.6L1135.4 1023.7"/>
    </g>
    </g>
    <g>
    <g>
        <path d="M582.399 2102.4V1936.2L722.599 1820.4V1596.4L865.599 1478.3L865.699 1277.9L970.599 1191.4L1013.3 192.2L1048.5 169.9"/>
        <path d="M1178.6 1020L1137.7 1053.7"/>
    </g>
    </g>
    <g>
    <g>
        <path d="M621.1 2136.7V1970.2L761.4 1854.4L761.5 1630.3L904.3 1512.4L904.4 1312L1010.6 1224.4L1026 199.9L1061.2 177"/>
        <path d="M1217.4 1054L1142.9 1115.4"/>
    </g>
    </g>
    <g>
        <path d="M479.8 1592.9L331.4 1715.5V2062.8L191.8 2178L191.3 2922.9"/>
    </g>
    <g>
        <path d="M207.8 2937.5V2192.5L347.7 2076.5V1729.9L488 1614.1V1390.1L681.6 1230.3"/>
    </g>
    <g>
        <path d="M917.3 925.1L682.1 1119L682 1319.4L539 1437.4V1661.5L398.9 1777.1V2124L259.1 2240V2985.2"/>
    </g>
    <g>
        <path d="M913.2 969L707.3 1138.7L707.2 1339.1L564.3 1457.1L564.2 1681.2L424 1796.9V2143.6L284.2 2259.6V3005"/>
    </g>
    <g>
        <path d="M908.5 1018.8L734.3 1162.4L734.2 1362.8L591.2 1480.9V1704.9L451 1820.7V2167.3L311.1 2283.4V2309"/>
    </g>
    <g>
        <path d="M906 1044.8L748.4 1174.8L748.3 1375.2L605.3 1493.2V1717.3L465 1833.1V2168.7"/>
    </g>
    <g>
        <path d="M900.7 1101.2L778.9 1201.6L778.8 1402L635.8 1520.1C637.6 1525.6 635.8 1744.1 635.8 1744.1L495.6 1859.9V2140.8"/>
    </g>
    <g>
        <path d="M1026.5 161.9L994.2 180.8L914.8 1145.5L811.7 1230.5V1430.9L668.7 1548.9L668.6 1773L527.9 1889.2V2111.4"/>
    </g>
    <g>
    <g>
        <path d="M601.2 2118.8V1952.7L741.4 1836.9V1612.9L884.4 1494.8V1294.4L990 1207.4L1019.4 195.9L1053.7 174.8"/>
        <path d="M1197.4 1036.5L1140.3 1083.6"/>
    </g>
    </g>
    <g>
    <g>
        <path d="M546 2094.8V1904.2L686.201 1788.5L686.3 1564.4L829.201 1446.4L829.3 1246L933 1160.5L1000.4 184.5L1034.2 164"/>
        <path d="M1142.1 988.2L1133.1 995.6"/>
    </g>
    </g>
    <g>
        <path d="M1301.9 1128.2L988.6 1386.4V1586.9L846 1704.6V1928.9L705.8 2044.7V2210.3"/>
    </g>
    <g>
        <path d="M1348 1168.1L1034.4 1426.7V1627.1L891.8 1744.8V1969.2L751.6 2084.9V2250.3"/>
    </g>
    <g>
        <path d="M776.2 2271.8V2106.6L916.4 1990.8V1766.5L1059 1648.8V1448.3L1372.8 1189.7"/>
    </g>
    <g>
        <path d="M945.2 1548.7L802.6 1666.4V1890.8L662.4 2006.5V2173.6"/>
        <path d="M1258.6 1090L945.2 1348.3V1548.7"/>
    </g>
    <g>
        <path d="M1326 1146.3L1010.9 1406V1606.5L868.3 1724.2V1948.5L728.1 2064.3V2230.3"/>
    </g>
    <g>
        <path d="M1432.9 1420.6L963.3 1808.4V2032L823.7 2149.3V2313.3"/>
    </g>
    <g>
        <path d="M1459.9 1444.4L988.6 1833.5V2054.3L852.4 2173.6V2338.4"/>
    </g>
    <g>
        <path d="M1488.1 1469.1L1018.4 1856.9V2080.5L880.6 2198.3V2363"/>
    </g>
    <g>
        <path d="M1516.2 1493.9L1046.6 1881.6V2105.3L909.9 2224.1V2388.6"/>
    </g>
    <g>
        <path d="M1621.8 1742.3L966.3 2275.5V2437.9"/>
    </g>
    <g>
        <path d="M1279.6 1108.7L966.3 1366.8V1567.3L823.7 1685V1909.3L683.5 2025.1V2190.8"/>
    </g>
    <g>
        <path d="M166 2900.6V2155.3L324.7 2024.3"/>
    </g>
    <g>
        <path d="M177.6 2910.8L177.7 2165.6L324.7 2044.3"/>
    </g>
    <g>
        <path d="M682 1215.9L479.8 1382.9V1606.9L339.6 1722.7V2069.4L199.6 2185.2V2930.2"/>
    </g>
    <g>
        <path d="M682 1245.9L497.7 1398.1L497.6 1622.2L357.2 1738.1V2084.8L217.1 2200.6V2945.7"/>
    </g>
    <g>
        <path d="M226.6 2954.1V2209L366.5 2093.1V1746.4L506.7 1630.6L506.8 1406.6L682 1261.9"/>
    </g>
    <g>
        <path d="M237.1 2963.3V2218.2L377.1 2102.4V1755.7L517.3 1639.9V1415.9L681.6 1280.3"/>
    </g>
    <g>
        <path d="M248.2 2973.2V2228L387.7 2111.7V1765L527.9 1649.2V1425.2L682 1297.9"/>
    </g>
    <g>
        <path d="M915.4 945.2L694.4 1127.3L694.3 1327.7L551.4 1445.8L551.3 1669.8L411.1 1785.6V2131.4L271.1 2248.1V2993.4"/>
    </g>
    <g>
        <path d="M296.8 2322V2270.7L436.9 2155V1808.3L577.1 1692.5L577.2 1468.5L720.1 1350.4L720.2 1150L910.9 992.8"/>
    </g>
    <g>
        <path d="M919.1 3565.7V2817.8L1083.1 2682.6L1082.7 2356.4"/>
    <g>
        <path d="M1089.8 2678.1V2350.9"/>
    </g>
    <g>
        <path d="M1106.1 2337.1V2664.7"/>
    </g>
    <g>
        <path d="M1098 2671.4V2343.8"/>
    </g>
    <g>
        <path d="M1115.6 2657V2328"/>
    </g>
    <g>
        <path d="M1125 2649.3V2321.5"/>
    </g>
    <g>
        <path d="M1238.2 2228.1V2555.7"/>
    </g>
    <g>
        <path d="M1270.4 2201.4V2529.3"/>
    </g>
    <g>
        <path d="M1322.1 2159.6V2487.8"/>
    </g>
    <g>
        <path d="M1340.8 2144.2V2472"/>
    </g>
    <g>
        <path d="M1379.5 2112.2V2440.8"/>
    </g>
    <g>
        <path d="M1399.5 2095.7V2424.5"/>
    </g>
    <g>
        <path d="M1157.3 2294.8V2622.8"/>
    </g>
    <g>
        <path d="M1182.4 2274.1V2602.2"/>
    </g>
    <g>
        <path d="M1209.4 2251.8V2580.2"/>
    </g>
    <g>
        <path d="M1223.4 2240.2V2568.7"/>
    </g>
    <g>
        <path d="M1254 2215V2542.8"/>
    </g>
    <g>
        <path d="M1286.3 2188.3V2516.4"/>
    </g>
    <g>
        <path d="M1359.6 2128.7V2457.2"/>
    </g>
    <g>
        <path d="M1304.4 2174.2V2502.3"/>
    </g>
    <g>
        <path d="M1464.2 2042.3V2371.5"/>
    </g>
    <g>
        <path d="M1510 2004.5V2334"/>
    </g>
    <g>
        <path d="M1534.6 1984.2V2314.4"/>
    </g>
    <g>
        <path d="M1486.5 2023.9V2353.3"/>
    </g>
    <g>
        <path d="M1420.8 2078.1V2407"/>
    </g>
    <g>
        <path d="M1555.7 1966.8V2296.6"/>
    </g>
    <g>
        <path d="M1582.1 1945.1V2275"/>
    </g>
    <g>
        <path d="M1610.8 1921.2V2251.5"/>
    </g>
    <g>
        <path d="M1639 1898V2228.4"/>
    </g>
    <g>
        <path d="M1668.3 1873.8V2204.4"/>
    </g>
    <g>
        <path d="M1693.3 1853.1V2184"/>
    </g>
    <g>
        <path d="M1724.7 1829.4V2158.2"/>
    </g>
    <g>
        <path d="M1441.9 2060.6V2389.8"/>
    </g>
    <g>
        <path d="M1135.5 2640.6V2312.8"/>
    </g>
    <g>
        <path d="M1146.1 2632V2304.1"/>
    </g>
    <g>
        <path d="M1169.5 2612.8V2284.7"/>
    </g>
    <g>
        <path d="M1195.3 2591.6V2263.4"/>
    </g>
    </g>
    <g>
        <path d="M934.9 2410.4V2246.1L1082.9 2123.9L1083 2123.3L1082.7 1901.9"/>
    <g>
        <path d="M1238.2 1773.6V1995.7"/>
    </g>
    <g>
        <path d="M1270.4 1746.9V1969.4"/>
    </g>
    <g>
        <path d="M1322.1 1704.2V1926.4"/>
    </g>
    <g>
        <path d="M1340.8 1688.8V1911"/>
    </g>
    <g>
        <path d="M1379.5 1656.9V1879"/>
    </g>
    <g>
        <path d="M1399.5 1640.4V1862.5"/>
    </g>
    <g>
        <path d="M1089.8 2118.8V1896.4"/>
    </g>
    <g>
        <path d="M1106.1 1882.6V2104.7"/>
    </g>
    <g>
        <path d="M1157.3 1840.3V2062.5"/>
    </g>
    <g>
        <path d="M1182.4 1819.6V2041.7"/>
    </g>
    <g>
        <path d="M1209.4 1797.3V2019.5"/>
    </g>
    <g>
        <path d="M1223.4 1785.8V2007.9"/>
    </g>
    <g>
        <path d="M1254 1760.5V1982.5"/>
    </g>
    <g>
        <path d="M1286.3 1733.8V1956"/>
    </g>
    <g>
        <path d="M1359.6 1673.3V1895.5"/>
    </g>
    <g>
        <path d="M1304.4 1718.8V1941"/>
    </g>
    <g>
        <path d="M1464.2 1586.9V1809.1"/>
    </g>
    <g>
        <path d="M1510 1549.2V1771.3"/>
    </g>
    <g>
        <path d="M1534.6 1528.8V1751"/>
    </g>
    <g>
        <path d="M1486.5 1568.5V1790.7"/>
    </g>
    <g>
        <path d="M1420.8 1622.8V1844.5"/>
    </g>
    <g>
        <path d="M1555.7 1511.4V1733.6"/>
    </g>
    <g>
        <path d="M1441.9 1605.3V1827.5"/>
    </g>
    <g>
        <path d="M1098 2111.4V1889.3"/>
    </g>
    <g>
        <path d="M1115.6 2096.9V1873.5"/>
    </g>
    <g>
        <path d="M1125 2089.2V1867"/>
    </g>
    <g>
        <path d="M1135.5 2080.4V1858.3"/>
    </g>
    <g>
        <path d="M1146.1 2071.7V1849.6"/>
    </g>
    <g>
        <path d="M1169.5 2052.4V1830.2"/>
    </g>
    <g>
        <path d="M1195.3 2031.1V1808.9"/>
    </g>
    </g>
    <g>
        <path d="M797.3 2290.2V2125.1L937.5 2009.4V1785.7L1083 1667L1082.7 1468.3"/>
    <g>
        <path d="M1238.2 1342.3V1537.4"/>
    </g>
    <g>
        <path d="M1270.4 1315.7V1511"/>
    </g>
    <g>
        <path d="M1322.1 1273V1468"/>
    </g>
    <g>
        <path d="M1340.8 1257.6V1452.6"/>
    </g>
    <g>
        <path d="M1379.5 1225.6V1420.7"/>
    </g>
    <g>
        <path d="M1399.5 1209.1V1404.2"/>
    </g>
    <g>
        <path d="M1089.8 1660.5V1462.8"/>
    </g>
    <g>
        <path d="M1106.1 1451.3V1646.4"/>
    </g>
    <g>
        <path d="M1157.3 1409.1V1604.1"/>
    </g>
    <g>
        <path d="M1182.4 1388.3V1583.4"/>
    </g>
    <g>
        <path d="M1209.4 1366.1V1561.1"/>
    </g>
    <g>
        <path d="M1223.4 1354.5V1549.5"/>
    </g>
    <g>
        <path d="M1254 1329.2V1524.2"/>
    </g>
    <g>
        <path d="M1286.3 1302.6V1497.6"/>
    </g>
    <g>
        <path d="M1359.6 1242.1V1437.1"/>
    </g>
    <g>
        <path d="M1304.4 1287.6V1482.6"/>
    </g>
    <g>
        <path d="M1098 1653.1V1458"/>
    </g>
    <g>
        <path d="M1115.6 1638.6V1442.2"/>
    </g>
    <g>
        <path d="M1125 1630.8V1435.8"/>
    </g>
    <g>
        <path d="M1135.5 1622.1V1427"/>
    </g>
    <g>
        <path d="M1146.1 1613.4V1418.3"/>
    </g>
    <g>
        <path d="M1169.5 1594V1399"/>
    </g>
    <g>
        <path d="M1195.3 1572.7V1377.7"/>
    </g>
    </g>
    <g>
    <g>
        <path d="M1034.3 202.3L1032.1 1242.1L924.3 1329.5V1529.9L781.3 1648V1872L641.1 1987.8V2153.7"/>
        <path d="M1128.7 1161.1L1059.7 186.2"/>
        <path d="M1237.4 1071.5L1145.6 1148.1L1066.2 181.4"/>
        <path d="M1056.6 1220.5L1041.1 198.5"/>
        <path d="M1082.9 1198.8L1047 193.7"/>
        <path d="M1053.2 188.5L1106.6 1180.9"/>
    </g>
    </g>
    <g>
        <path d="M572.5 2089.8L296.8 2322V3015.1"/>
    </g>
    <g>
        <path d="M590.2 2109.5L316.5 2340.1V3033.5"/>
    </g>
    <g>
        <path d="M609.4 2126.3L335.8 2356.8V3050.5"/>
    </g>
    <g>
        <path d="M628.7 2143.1L355.1 2373.7V3067.6"/>
    </g>
    <g>
        <path d="M650 2161.7L376.3 2392.3V3086.3"/>
    </g>
    <g>
        <path d="M671.5 2180.5L397.9 2411.1V3105.4"/>
    </g>
    <g>
        <path d="M691.9 2198.3L418.3 2428.9V3123.4"/>
    </g>
    <g>
        <path d="M715.1 2218.5L441.4 2449.1V3143.8"/>
    </g>
    <g>
        <path d="M737.1 2237.8L463.4 2468.3V3163.3"/>
    </g>
    <g>
        <path d="M761.3 2258.9L487.7 2489.5V3184.7"/>
    </g>
    <g>
        <path d="M785.2 2279.8L511.3 2510.6V3205.5"/>
    </g>
    <g>
        <path d="M808.9 2300.4L534.7 2531.4V3226.2"/>
    </g>
    <g>
        <path d="M836.4 2324.5L562.8 2555.1V3246.8"/>
    </g>
    <g>
        <path d="M865 2349.4L591.3 2580V3276.2"/>
    </g>
    <g>
        <path d="M892.8 2373.8L619.2 2604.3V3300.8"/>
    </g>
    <g>
        <path d="M920.2 2397.7L646.6 2628.2V3325"/>
    </g>
    <g>
        <path d="M947.4 2421.4L673.7 2651.9V3349"/>
    </g>
    <g>
        <path d="M976.9 2447.2L703.3 2677.7V3375.1"/>
    </g>
    <g>
        <path d="M742.6 3425.4V2690.5"/>
    </g>
    <g>
        <path d="M786 2653.3V3463.7"/>
    </g>
    <g>
    <g>
        <path d="M1851 2145L975.7 2867.7V3615.7"/>
    </g>
    <g>
        <path d="M1883.9 2173.9L1008.6 2896.6V3644.7"/>
    </g>
    <g>
        <path d="M1917.9 2203.8L1042.6 2926.5V3674.8"/>
    </g>
    <g>
        <path d="M1927 2254.3L1076.6 2956.4V3704.8"/>
    </g>
    <g>
        <path d="M1926.9 2314.4L1111.8 2987.3V3735.9"/>
    </g>
    <g>
        <path d="M1818.1 2116.1L943.2 2838.5V3587"/>
    </g>
    <g>
        <path d="M1238.2 2923.3V3659.4"/>
    </g>
    <g>
        <path d="M1270.4 2896.7V3633"/>
    </g>
    <g>
        <path d="M1322.1 2854.8V3591.5"/>
    </g>
    <g>
        <path d="M1340.8 2839.4V3575.7"/>
    </g>
    <g>
        <path d="M1379.5 2807.4V3544.5"/>
    </g>
    <g>
        <path d="M1399.5 2791V3528.2"/>
    </g>
    <g>
        <path d="M1157.3 2990V3726.5"/>
    </g>
    <g>
        <path d="M1182.4 2969.3V3705.9"/>
    </g>
    <g>
        <path d="M1209.4 2947.1V3683.8"/>
    </g>
    <g>
        <path d="M1223.4 2935.5V3672.4"/>
    </g>
    <g>
        <path d="M1254 2910.2V3646.5"/>
    </g>
    <g>
        <path d="M1286.3 2883.6V3620"/>
    </g>
    <g>
        <path d="M1359.6 2823.9V3560.9"/>
    </g>
    <g>
        <path d="M1304.4 2869.4V3606"/>
    </g>
    <g>
        <path d="M1464.2 2737.5V3475.2"/>
    </g>
    <g>
        <path d="M1510 2699.7V3437.7"/>
    </g>
    <g>
        <path d="M1534.6 2679.4V3418.1"/>
    </g>
    <g>
        <path d="M1486.5 2719.1V3456.9"/>
    </g>
    <g>
        <path d="M1420.8 2773.3V3510.7"/>
    </g>
    <g>
        <path d="M1555.7 2662V3400.3"/>
    </g>
    <g>
        <path d="M1582.1 2640.3V3378.7"/>
    </g>
    <g>
        <path d="M1610.8 2616.5V3355.2"/>
    </g>
    <g>
        <path d="M1639 2593.2V3332.1"/>
    </g>
    <g>
        <path d="M1668.3 2569V3308.1"/>
    </g>
    <g>
        <path d="M1693.3 2548.4V3287.6"/>
    </g>
    <g>
        <path d="M1724.7 2524.6V3261.9"/>
    </g>
    <g>
        <path d="M1756.7 2500.6V3234.5"/>
    </g>
    <g>
        <path d="M1788.7 2470.4V3208.1"/>
    </g>
    <g>
        <path d="M1822.7 2440.8V3180"/>
    </g>
    <g>
        <path d="M1856.7 2414.2V3151.9"/>
    </g>
    <g>
        <path d="M1892.7 2384.5V3122.2"/>
    </g>
    <g>
        <path d="M1926.9 2357.4V3102.3"/>
    </g>
    <g>
        <path d="M1441.9 2755.8V3493.4"/>
    </g>
    <g>
        <path d="M1135.5 3744.3V3008"/>
    </g>
    <g>
        <path d="M1146.1 3735.7V2999.3"/>
    </g>
    <g>
        <path d="M1169.5 3716.5V2980"/>
    </g>
    <g>
        <path d="M1195.3 3695.3V2958.6"/>
    </g>
    <g>
        <path d="M1693.3 1797.3L1037.5 2334V2500V2663L887.1 2788.9V3525.7"/>
    </g>
    <g>
        <path d="M852.4 3484.2V2760.8L997.6 2638.5V2301.7L1657.5 1770.3"/>
    </g>
    </g>
    <g>
    <g>
        <path d="M823.6 2621.6V3503.5"/>
    </g>
    <g>
        <path d="M861.6 2721.8V2588.4"/>
    </g>
    <g>
        <path d="M895.6 2689.5V2558.4"/>
    </g>
    <g>
        <path d="M931.6 2655.4V2528.3"/>
    </g>
    <g>
        <path d="M966.3 2501.4V2632"/>
    </g>
    </g>

    <line class="illustration__guide" id="guide-1"  x1="64.9712" y1="2539.86" x2="1480.97" y2="3742.86" stroke="#FF0000" stroke-width="3"/>
    <line class="illustration__guide" id="guide-2"  x1="209.971" y1="1700.86" x2="1625.97" y2="2903.86" stroke="#FF0000" stroke-width="3"/>

    <defs>
        <linearGradient id="illustration-8_linear" x1="1086.9" y1="-390.057" x2="1086.9" y2="3003.03" gradientUnits="userSpaceOnUse">
            <stop stop-color="white"/>
            <stop offset="0.494792" stop-color="#888888"/>
            <stop offset="1" stop-color="white"/>
        </linearGradient>
    </defs>
</svg>
