<svg width="6000" height="3000" viewBox="0 0 6000 3000" fill="none" xmlns="http://www.w3.org/2000/svg">
<g>
<path id="Vector" d="M1971.5 1416L1130.6 3000" />
</g>
<g>
<path d="M1940.2 1416L1075.7 3000" />
</g>
<g>
<path d="M1909.9 1416L1022.7 3000" />
</g>
<g>
<path d="M1878.9 1416L955 3000" />
</g>
<g>
<path d="M1844.9 1416L887.8 3000" />
</g>
<g>
<path d="M1808.6 1416L818.6 3000" />
</g>
<g>
<path d="M1766.2 1416L745 3000" />
</g>
<g>
<path d="M1136 2288L677 3000" />
</g>
<g>
<path d="M1069 2288L608.6 3000" />
</g>
<g>
<path d="M1002.7 2288L539.6 3000" />
</g>
<g>
<path d="M937 2288L474 3000" />
</g>
<g>
<path d="M871.7 2288L399 3000" />
</g>
<g>
<path d="M1931.8 1558.8L2007.6 1416" />
</g>
<g>
<path d="M1971.7 1558.8L2047.5 1416" />
</g>
<g>
<path d="M2006.6 1558.8L2082.5 1416" />
</g>
<g>
<path d="M2084.2 1558.8L2152 1416" />
</g>
<g>
<path d="M1225.6 3000L1971.7 1558.8" />
</g>
<g>
<path d="M1346.7 3000L2116.1 1416" />
</g>
<g>
<path d="M1491.7 3000L2187.7 1416" />
</g>
<g>
<path d="M2098.2 3000L2442.7 1558.8H2486.3L2619.1 1024H2654.3L2713.3 736" />
</g>
<g>
<path d="M1642.7 3000L2200.8 1558.8H2239L2429.7 1024" />
</g>
<g>
<path d="M1790.2 3000L2279.7 1558.8H2319.4L2494.3 1024" />
</g>
<g>
<path d="M1947.2 3000L2363.3 1558.8H2400.5L2557 1024H2586.7L2655.5 736" />
</g>
<g>
<path d="M2260 3000L2533 1558.8H2578.7L2688.7 1024H2720.4L2770.3 736" />
</g>
<g>
<path d="M2417.9 3000L2626.6 1558.8H2668.6L2751.1 1024H2780.3L2822.7 736" />
</g>
<g>
<path d="M2553.8 3000L2711.1 1558.8H2752.9L2812.9 1024H2842.1L2871.6 736" />
</g>
<g>
<path d="M2690.7 3000L2795 1558.8H2832.1L2872.6 1024H2897.2L2922.5 644.5" />
</g>
<g>
<path d="M2827.1 3000L2874.8 1558.8H2910.3L2922.6 1024" />
</g>
<g>
<path d="M2949.3 3000V1558.8" />
</g>
<g>
<path d="M2161.4 1558.8L2368.5 1024" />
</g>
<g>
<path d="M3927.1 1416L4768 3000" />
</g>
<g>
<path d="M3958.4 1416L4823 3000" />
</g>
<g>
<path d="M3988.7 1416L4876 3000" />
</g>
<g>
<path d="M4019.7 1416L4943.6 3000" />
</g>
<g>
<path d="M4053.7 1416L5010.8 3000" />
</g>
<g>
<path d="M4090 1416L5080 3000" />
</g>
<g>
<path d="M4132.4 1416L5153.6 3000" />
</g>
<g>
<path d="M4762.6 2288L5221.6 3000" />
</g>
<g>
<path d="M4829.6 2288L5290 3000" />
</g>
<g>
<path d="M4896 2288L5359 3000" />
</g>
<g>
<path d="M4961.6 2288L5424.6 3000" />
</g>
<g>
<path d="M5026.9 2288L5499.6 3000" />
</g>
<g>
<path d="M3966.8 1558.8L3891 1416" />
</g>
<g>
<path d="M3926.9 1558.8L3851.1 1416" />
</g>
<g>
<path d="M3892 1558.8L3816.2 1416" />
</g>
<g>
<path d="M3814.4 1558.8L3746.6 1416" />
</g>
<g>
<path d="M4673 3000L3926.9 1558.8" />
</g>
<g>
<path d="M4552 3000L3782.5 1416" />
</g>
<g>
<path d="M4407 3000L3710.9 1416" />
</g>
<g>
<path d="M3800.4 3000L3455.9 1558.8H3412.3L3279.5 1024H3244.3L3185.3 736" />
</g>
<g>
<path d="M4255.9 3000L3697.9 1558.8H3659.7L3468.9 1024" />
</g>
<g>
<path d="M4108.4 3000L3619 1558.8H3579.3L3404.3 1024" />
</g>
<g>
<path d="M3951.4 3000L3535.3 1558.8H3498.1L3341.7 1024H3311.9L3243.1 736" />
</g>
<g>
<path d="M3638.6 3000L3365.6 1558.8H3319.9L3209.9 1024H3178.2L3128.3 736" />
</g>
<g>
<path d="M3480.7 3000L3272 1558.8H3230L3147.5 1024H3118.3L3076 736" />
</g>
<g>
<path d="M3344.8 3000L3187.5 1558.8H3145.8L3085.7 1024H3056.5L3027 736" />
</g>
<g>
<path d="M3207.9 3000L3103.6 1558.8H3066.5L3026 1024H3001.4L2978.7 644.5" />
</g>
<g>
<path d="M3071.5 3000L3023.8 1558.8H2988.3L2976 1024" />
</g>
<g>
<path d="M3737.2 1558.8L3530.1 1024" />
</g>
<g>
<path d="M2949.3 1024V569.3" />
</g>

<line class="illustration__guide" id="guide-1" x1="580" y1="2656.5" x2="5321" y2="2656.5" stroke="#FF0000" stroke-width="3"/>
<line class="illustration__guide" id="guide-2" x1="1366" y1="1485.5" x2="4537" y2="1485.5" stroke="#FF0000" stroke-width="3"/>
<line class="illustration__guide" id="guide-3" x1="1766" y1="873.5" x2="4132" y2="873.5" stroke="#FF0000" stroke-width="3"/>

    <defs>
        <linearGradient id="illustration-9_linear" x1="0%" y1="0%" x2="0%" y2="100%" gradientUnits="userSpaceOnUse">
            <stop offset="50%" stop-color="#FFFFFF" />
            <stop offset="80%" stop-color="#888888" />
            <stop offset="100%" stop-color="#555555" stop-opacity="0" />
        </linearGradient>
    </defs>

</svg>
